<svg width="101" height="84" viewBox="0 0 101 84" fill="none" xmlns="http://www.w3.org/2000/svg">
<path d="M4.50994 42.3882L1.46387 34.5699H11.0082C11.3128 33.6053 11.7697 29.1378 15.8312 21.9287C21.5172 12.6891 28.7262 8.62755 28.7262 8.62755C35.6814 4.36312 39.8444 3.70314 39.8444 3.80468C39.8444 3.80468 42.1289 0.2509 42.4843 0.555507C42.4843 0.555507 50.7595 0.200164 53.6025 0.656996C53.6025 0.656996 55.7855 0.656997 56.7501 2.73848C56.7501 2.73848 66.2945 4.00767 74.1635 10.2521C74.1635 10.2521 80.0526 14.212 84.774 21.9287C84.5724 21.7257 88.0739 27.0055 89.5461 34.5699L99.4967 34.6207L96.4506 42.3882L99.4967 50.0541H89.5461C88.6831 56.1463 85.1293 62.0353 85.1293 62.0353C85.637 61.2738 80.9156 70.0566 72.6404 75.6411C72.6404 75.6411 62.7407 82.3425 51.1149 82.3425C51.1149 82.3425 40.809 83.3071 29.3862 76.4534C29.3862 76.4534 21.111 71.6305 15.7296 62.5938C15.7296 62.5938 12.582 58.0247 11.0082 50.0541H1.51464L4.50994 42.3882Z" fill="black"/>
<path d="M20.7086 25.1777L20.9622 26.8023L22.5321 27.0561L21.1614 27.8684L21.4152 29.4993L20.2983 28.7188L18.7753 29.0361L19.4353 27.6146L18.3184 26.4469L19.9429 26.7008L20.7086 25.1777Z" fill="#F6F6F6"/>
<path d="M79.4388 25.0762L79.1852 26.7007L77.6154 26.9546L78.9861 27.7669L78.7323 29.3978L79.8492 28.6173L81.3722 28.9345L80.7122 27.513L81.8291 26.3454L80.2045 26.5992L79.4388 25.0762Z" fill="#F6F6F6"/>
<path d="M25.9051 18.2469L25.7549 19.8842L27.2155 20.5132L25.688 20.9668L25.5366 22.6103L24.6437 21.581L23.0893 21.5174L24.0759 20.2997L23.2774 18.895L24.7911 19.5372L25.9051 18.2469Z" fill="#F6F6F6"/>
<path d="M74.2444 18.1434L74.3945 19.7807L72.934 20.4097L74.4614 20.8632L74.6128 22.5068L75.5057 21.4775L77.0602 21.4139L76.0735 20.1962L76.872 18.7914L75.3583 19.4337L74.2444 18.1434Z" fill="#F6F6F6"/>
<path d="M32.8209 12.9414L32.2483 14.4827L33.494 15.4712L31.9012 15.5102L31.3258 17.0572L30.7326 15.8305L29.2488 15.3631L30.5192 14.4453L30.1152 12.8808L31.4086 13.8961L32.8209 12.9414Z" fill="#F6F6F6"/>
<path d="M67.3266 12.8417L67.8991 14.3831L66.6534 15.3716L68.2463 15.4106L68.8217 16.9576L69.4148 15.7309L70.8987 15.2635L69.6283 14.3457L70.0323 12.7812L68.7388 13.7965L67.3266 12.8417Z" fill="#F6F6F6"/>
<path d="M60.4813 9.67438L61.0972 11.6071L62.075 12.9369L62.3088 11.5945L63.6075 10.7379L62.134 10.2039L62.0932 8.58862L61.128 9.91981L60.4813 9.67438Z" fill="#F6F6F6"/>
<path d="M7.65527 50.5625H94.5699V38.0736H7.65527V50.5625Z" fill="black"/>
<line x1="0.749023" y1="34.1134" x2="100.457" y2="34.1134" stroke="#F6142C" stroke-width="1.01536"/>
<line y1="-0.507679" x2="99.7082" y2="-0.507679" transform="matrix(1 0 0 -1 0.749023 50.0547)" stroke="#F6142C" stroke-width="1.01536"/>
<path fill-rule="evenodd" clip-rule="evenodd" d="M11.2302 33.5032C15.3492 15.6414 31.2806 2.33176 50.3019 2.33176C69.3231 2.33176 85.2545 15.6414 89.3735 33.5032H11.2302ZM10.1888 33.5032C14.3274 15.0787 30.7138 1.31641 50.3019 1.31641C69.8899 1.31641 86.2763 15.0787 90.415 33.5032H100.254H100.999L100.959 33.604H101.001L100.729 34.2972L97.571 42.3394L100.726 50.3757L100.999 51.0689H100.961L101.001 51.1696H100.256H90.4146C86.2768 69.5954 69.8898 83.3589 50.3009 83.3589C30.7119 83.3589 14.325 69.5954 10.1872 51.1696H0.751092H0.0139179L0.0523681 51.0689H0L0.277101 50.3733L1.24935 47.9328L3.38422 42.3395L1.13914 36.4574L0.279461 34.2995L0.00235993 33.604H0.0500096L0.011558 33.5032H0.748732H10.1888ZM94.5698 34.5186H7.65522V34.6193H1.52436L2.08512 36.0885L4.44882 42.0218L4.5221 42.2057L4.47103 42.3395L4.51974 42.4672L4.44646 42.6511L2.19534 48.3018L1.52672 50.0536H9.95276C9.44503 47.4592 9.17891 44.7777 9.17891 42.0339H10.1943C10.1943 44.7799 10.4675 47.4618 10.988 50.0536H89.6138C90.1343 47.4618 90.4075 44.7799 90.4075 42.0339H91.4229C91.4229 44.7777 91.1568 47.4592 90.649 50.0536H99.4718L96.5344 42.5723L96.4616 42.3868L96.4802 42.3394L96.4592 42.2861L96.5321 42.1005L99.4695 34.6193H94.5698V34.5186ZM50.3009 82.3436C31.2788 82.3436 15.3468 69.0327 11.2287 51.1696H89.3731C85.255 69.0327 69.323 82.3436 50.3009 82.3436Z" fill="url(#paint0_linear_433_163)"/>
<path d="M13.1382 50.0555H9.16434L7.65527 38.1758H13.1382V50.0555Z" fill="black"/>
<path d="M87.2583 50.0555H91.2321L92.7412 38.1758H87.2583V50.0555Z" fill="black"/>
<path d="M9.50064 37.2583C10.3383 37.2588 11.0618 37.4242 11.6712 37.7545C12.2891 38.0849 12.7674 38.5759 13.1062 39.2276C13.4535 39.8708 13.6274 40.6748 13.6279 41.6394C13.6285 42.6716 13.4259 43.5515 13.0201 44.2789C12.6229 44.9979 12.0689 45.5476 11.3584 45.928C10.6563 46.3083 9.83568 46.4983 8.89647 46.4978C8.40571 46.4975 7.93185 46.438 7.47487 46.3193C7.0179 46.209 6.62436 46.0523 6.29426 45.849L7.2071 44.0473C7.46104 44.2251 7.7234 44.3479 7.9942 44.4158C8.27346 44.4752 8.55693 44.5049 8.84461 44.5051C9.52998 44.5055 10.0756 44.2985 10.4815 43.8841C10.8875 43.4697 11.0902 42.8648 11.0898 42.0695C11.0897 41.9256 11.0896 41.7776 11.0895 41.6253C11.0894 41.4645 11.0767 41.3037 11.0512 41.1429L11.6734 41.6637C11.5212 41.9766 11.3225 42.2388 11.0773 42.4502C10.832 42.6616 10.5444 42.8222 10.2145 42.932C9.88456 43.0419 9.50806 43.0966 9.08499 43.0964C8.52654 43.0961 8.01457 42.9816 7.54908 42.7529C7.09203 42.5157 6.72379 42.1897 6.44434 41.775C6.16489 41.3518 6.025 40.8567 6.02469 40.2898C6.02436 39.6721 6.1806 39.1391 6.49342 38.6909C6.80624 38.2341 7.22488 37.8832 7.74935 37.6381C8.27382 37.3846 8.85758 37.258 9.50064 37.2583ZM9.66661 39.048C9.42969 39.0479 9.22242 39.0943 9.04478 39.1873C8.86714 39.2802 8.72337 39.4113 8.61347 39.5805C8.51202 39.7412 8.46136 39.94 8.46149 40.1769C8.46167 40.5154 8.57182 40.7862 8.79192 40.9894C9.02049 41.1926 9.31669 41.2943 9.68053 41.2945C9.92591 41.2946 10.1416 41.2482 10.3277 41.1552C10.5138 41.0623 10.6576 40.9312 10.7591 40.762C10.8605 40.5928 10.9112 40.394 10.911 40.1656C10.9109 39.9456 10.86 39.7552 10.7584 39.5944C10.6568 39.4251 10.5129 39.2938 10.3267 39.2007C10.1405 39.099 9.92045 39.0481 9.66661 39.048ZM16.5506 46.502C15.8991 46.5016 15.3067 46.3913 14.7736 46.171C14.2488 45.9423 13.8129 45.6163 13.4658 45.193L14.8356 43.5692C15.0727 43.8739 15.3182 44.1068 15.5721 44.2677C15.826 44.4201 16.0926 44.4964 16.3718 44.4966C17.1164 44.497 17.4885 44.0657 17.488 43.2026L17.4859 39.3823L14.4145 39.3806L14.4134 37.4387L19.9725 37.4418L19.9756 43.0517C19.9762 44.2109 19.6848 45.078 19.1012 45.6531C18.5177 46.2196 17.6675 46.5026 16.5506 46.502ZM20.4215 46.3265L24.3384 37.4443L26.8134 37.4456L30.7527 46.3322L28.1382 46.3307L25.0626 38.6758L26.0525 38.6763L22.9853 46.3279L20.4215 46.3265ZM22.5655 44.6015L23.2118 42.7489L27.5524 42.7513L28.2007 44.6047L22.5655 44.6015Z" fill="#F6F6F6"/>
<path d="M80.6101 44.3919L80.469 41.5742L84.287 37.4768L87.0539 37.4784L83.2485 41.6011L81.8532 43.0599L80.6101 44.3919ZM78.3647 46.3579L78.3599 37.4735L80.8475 37.4749L80.8523 46.3593L78.3647 46.3579ZM84.3299 46.3612L81.4342 42.6916L83.0705 40.9411L87.2491 46.3628L84.3299 46.3612ZM90.5718 37.3026C91.4095 37.3031 92.133 37.4685 92.7424 37.7988C93.3603 38.1292 93.8386 38.6202 94.1774 39.2719C94.5247 39.9151 94.6986 40.7191 94.6991 41.6836C94.6997 42.7159 94.4971 43.5958 94.0913 44.3232C93.694 45.0422 93.1401 45.5919 92.4296 45.9723C91.7275 46.3526 90.9069 46.5426 89.9677 46.542C89.4769 46.5418 89.003 46.4823 88.5461 46.3636C88.0891 46.2533 87.6956 46.0966 87.3655 45.8933L88.2783 44.0916C88.5322 44.2694 88.7946 44.3922 89.0654 44.4601C89.3446 44.5194 89.6281 44.5492 89.9158 44.5494C90.6012 44.5498 91.1468 44.3428 91.5527 43.9284C91.9586 43.514 92.1614 42.9091 92.161 42.1138C92.1609 41.9699 92.1608 41.8218 92.1607 41.6695C92.1606 41.5088 92.1478 41.348 92.1224 41.1872L92.7446 41.7079C92.5924 42.0209 92.3937 42.2831 92.1485 42.4945C91.9032 42.7059 91.6156 42.8665 91.2857 42.9763C90.9557 43.0861 90.5792 43.1409 90.1562 43.1407C89.5977 43.1404 89.0858 43.0259 88.6203 42.7972C88.1632 42.56 87.795 42.234 87.5155 41.8193C87.2361 41.396 87.0962 40.901 87.0959 40.3341C87.0955 39.7164 87.2518 39.1834 87.5646 38.7351C87.8774 38.2784 88.2961 37.9275 88.8205 37.6824C89.345 37.4289 89.9288 37.3023 90.5718 37.3026ZM90.7378 39.0923C90.5009 39.0922 90.2936 39.1386 90.116 39.2316C89.9383 39.3245 89.7946 39.4556 89.6847 39.6248C89.5832 39.7855 89.5325 39.9843 89.5327 40.2212C89.5329 40.5597 89.643 40.8305 89.8631 41.0337C90.0917 41.2369 90.3879 41.3386 90.7517 41.3388C90.9971 41.3389 91.2128 41.2925 91.3989 41.1995C91.585 41.1065 91.7288 40.9755 91.8302 40.8063C91.9317 40.6371 91.9823 40.4383 91.9822 40.2099C91.9821 39.9899 91.9312 39.7995 91.8296 39.6386C91.728 39.4694 91.5841 39.3381 91.3979 39.245C91.2117 39.1433 90.9916 39.0924 90.7378 39.0923Z" fill="#F6F6F6"/>
<path d="M25.1983 65.375L25.575 63.9661L25.9187 64.2942L25.6284 65.2381L26.549 64.8956L26.8928 65.2237L25.5156 65.6778L24.931 66.2989L24.6137 65.996L25.1983 65.375Z" fill="#F6F6F6"/>
<path d="M27.4633 68.603C27.3076 68.4824 27.1991 68.3433 27.1381 68.1857C27.077 68.028 27.0659 67.8602 27.1046 67.6822C27.145 67.5055 27.2342 67.3267 27.3722 67.1459C27.5101 66.9651 27.6587 66.8323 27.818 66.7475C27.9788 66.664 28.1427 66.6316 28.3097 66.6505C28.4767 66.6693 28.6381 66.739 28.7939 66.8595C28.9513 66.9813 29.0597 67.1204 29.1191 67.2768C29.1802 67.4345 29.1905 67.6016 29.1502 67.7784C29.1114 67.9564 29.023 68.1358 28.8851 68.3166C28.7471 68.4974 28.5977 68.6295 28.4369 68.7131C28.2776 68.7979 28.1145 68.8308 27.9475 68.812C27.7821 68.7944 27.6207 68.7248 27.4633 68.603ZM27.674 68.3269C27.8025 68.4263 27.9429 68.4515 28.0953 68.4025C28.2504 68.3532 28.3989 68.2356 28.5406 68.05C28.6822 67.8644 28.7562 67.6905 28.7624 67.5284C28.7714 67.3659 28.7117 67.235 28.5832 67.1356C28.4563 67.0374 28.3153 67.013 28.1601 67.0624C28.0078 67.1114 27.8607 67.2287 27.7191 67.4143C27.5774 67.6 27.502 67.774 27.493 67.9365C27.4868 68.0986 27.5471 68.2287 27.674 68.3269Z" fill="#F6F6F6"/>
<path d="M30.6061 70.8808C30.3744 70.7381 30.2368 70.5675 30.1934 70.3691C30.1517 70.1717 30.2041 69.9524 30.3506 69.7111L31.0256 68.5993L31.3991 68.8293L30.7272 69.9359C30.5481 70.231 30.5683 70.4461 30.7879 70.5813C31.0093 70.7176 31.2095 70.6382 31.3887 70.3431L32.0605 69.2365L32.434 69.4665L31.759 70.5783C31.6125 70.8196 31.4417 70.966 31.2465 71.0175C31.0513 71.069 30.8378 71.0234 30.6061 70.8808Z" fill="#F6F6F6"/>
<path d="M34.0996 70.4552L34.7764 70.7839C34.9938 70.8895 35.1348 71.0134 35.1996 71.1555C35.2653 71.2957 35.2552 71.4556 35.1692 71.6351C35.1087 71.7615 35.0305 71.8567 34.9345 71.9207C34.8386 71.9847 34.7307 72.0124 34.611 72.0039L34.6083 72.0094C34.6308 72.0519 34.6454 72.0895 34.6523 72.1222C34.6618 72.154 34.666 72.1876 34.6648 72.2231L34.6062 73.0717L34.187 72.8681L34.248 72.1764C34.2542 72.1072 34.2443 72.055 34.2184 72.0198C34.1933 71.9828 34.1379 71.9434 34.052 71.9017L33.9232 71.8392L33.5733 72.57L33.1787 72.3783L34.0996 70.4552ZM34.3143 71.6431C34.4148 71.6919 34.5024 71.704 34.5772 71.6794C34.6548 71.6538 34.7168 71.5925 34.7633 71.4955C34.8483 71.3178 34.7868 71.1784 34.5785 71.0772L34.3429 70.9628L34.0732 71.526L34.3143 71.6431Z" fill="#F6F6F6"/>
<path d="M40.5794 73.6639C40.4902 73.9436 40.2208 74.1211 39.7711 74.1965C39.4705 74.2482 39.1312 74.2515 38.7532 74.2063L38.4234 74.6435L37.9069 74.4764L38.8869 73.1896L39.3992 73.3554L38.9385 73.9583C39.1347 73.9759 39.3176 73.9637 39.4872 73.9217C39.7238 73.8617 39.8721 73.7508 39.932 73.5889C39.9705 73.4846 39.9573 73.4037 39.8923 73.3462C39.8534 73.3117 39.7749 73.2754 39.657 73.2372L38.2108 72.7692L38.5454 72.4835L40.0029 72.9552C40.2161 73.0242 40.3704 73.1033 40.4658 73.1926C40.6015 73.3188 40.6393 73.4759 40.5794 73.6639Z" fill="#F6142C"/>
<path d="M43.5529 74.6443C43.4772 75.0032 43.2703 75.2854 42.9321 75.4908C42.6044 75.6894 42.27 75.7521 41.9287 75.679C41.6776 75.6252 41.4936 75.5148 41.3768 75.3478C41.26 75.1808 41.2266 74.979 41.2765 74.7422C41.3023 74.62 41.3585 74.4951 41.4452 74.3677C41.5275 74.2464 41.6246 74.1414 41.7366 74.0529L42.3765 74.1899C42.2464 74.2635 42.1296 74.3683 42.0259 74.5042C41.9205 74.6439 41.8527 74.785 41.8226 74.9277C41.7979 75.0451 41.8012 75.1497 41.8324 75.2416C41.8702 75.3511 41.9438 75.4175 42.0534 75.441C42.2356 75.4801 42.4253 75.3975 42.6224 75.1933C42.7979 75.0098 42.9061 74.8211 42.947 74.627C42.9796 74.4728 42.9602 74.3434 42.889 74.2389C42.818 74.1334 42.704 74.0639 42.5469 74.0302L41.1115 73.7227L41.4114 73.4037L42.7494 73.6903C43.0208 73.7484 43.2298 73.851 43.3761 73.9979C43.5482 74.1717 43.6072 74.3871 43.5529 74.6443Z" fill="#F6142C"/>
<path d="M47.2794 75.1512C47.2427 75.5162 47.0673 75.8192 46.7531 76.0602C46.4487 76.2932 46.1229 76.3919 45.7756 76.3564C45.5202 76.3303 45.3254 76.2406 45.1913 76.0874C45.0572 75.9341 45.0022 75.7371 45.0264 75.4964C45.0389 75.3721 45.0814 75.2419 45.1538 75.1057C45.2226 74.9762 45.3079 74.8613 45.4097 74.7611L46.0607 74.8277C45.9393 74.9149 45.8344 75.0318 45.746 75.1782C45.6561 75.3285 45.6039 75.4762 45.5894 75.6212C45.5774 75.7406 45.5919 75.8443 45.6329 75.9322C45.6822 76.0369 45.7625 76.0949 45.874 76.1063C46.0594 76.1253 46.2392 76.0226 46.4132 75.7982C46.5679 75.5967 46.6552 75.3973 46.675 75.2C46.6908 75.0431 46.6577 74.9166 46.5756 74.8205C46.4937 74.7235 46.3728 74.6667 46.213 74.6504L44.7526 74.5011L45.0165 74.1513L46.3777 74.2905C46.6539 74.3187 46.8727 74.3979 47.034 74.528C47.2238 74.682 47.3056 74.8897 47.2794 75.1512Z" fill="#F6142C"/>
<path d="M50.8551 74.8548C50.8554 74.959 50.8145 75.0468 50.7324 75.1184C50.6542 75.186 50.5626 75.2199 50.4575 75.2201C50.3514 75.2203 50.2586 75.1868 50.1791 75.1196C50.0966 75.0484 50.0552 74.9607 50.0549 74.8566C50.0548 74.8219 50.0587 74.7921 50.0666 74.7673C49.8544 74.7698 49.6618 74.8803 49.4889 75.0988C49.3268 75.3054 49.2461 75.5178 49.2466 75.7359C49.2477 76.1454 49.5155 76.3496 50.0499 76.3484L50.7981 76.3468C50.7677 76.5055 50.6475 76.5851 50.4373 76.5855L49.8884 76.5868C49.5464 76.5875 49.2686 76.5385 49.0551 76.4399C48.7623 76.3037 48.6169 76.0814 48.6191 75.773C48.6206 75.6005 48.6732 75.4278 48.7769 75.2551C48.918 75.0188 49.1188 74.8319 49.3792 74.6945C49.6317 74.5611 49.9003 74.494 50.1848 74.4934L50.4823 74.4928C50.5785 74.4925 50.6644 74.529 50.7399 74.6022C50.8165 74.6755 50.8549 74.7597 50.8551 74.8548Z" fill="#F6142C"/>
<path d="M55.9861 75.1415C55.9752 75.3022 55.8746 75.3927 55.6843 75.413L54.8088 75.5065L54.618 76.3046L54.0856 76.3615L54.2793 75.563L53.7794 75.6163C53.5721 76.3335 53.1673 76.7247 52.565 76.79C52.4023 76.8074 52.2653 76.7896 52.154 76.7366C52.0197 76.6732 51.9444 76.5646 51.9281 76.4107C51.9154 76.2904 51.943 76.1648 52.0109 76.0339C52.1824 75.7035 52.5412 75.5092 53.0874 75.4509L53.3033 75.4278L53.6229 74.0789L54.1538 74.0223L53.8269 75.3719L54.3356 75.3176L54.6005 74.2019L55.1344 74.145L54.8666 75.261L55.9861 75.1415ZM53.2441 75.6735L53.2012 75.678C53.0069 75.6988 52.8377 75.7672 52.6934 75.8833C52.5271 76.0167 52.4536 76.1752 52.473 76.3586C52.4864 76.4858 52.5498 76.5433 52.6632 76.5312C52.8052 76.5161 52.9352 76.4015 53.0531 76.1875C53.1409 76.0275 53.2046 75.8562 53.2441 75.6735Z" fill="#F6142C"/>
<path d="M58.7949 73.3082L59.3368 75.3704L58.9453 75.4745L57.7443 74.344L58.1004 75.6992L57.6794 75.8111L57.1375 73.7489L57.5467 73.6401L58.7246 74.7547L58.3739 73.4201L58.7949 73.3082Z" fill="#F6F6F6"/>
<path d="M60.7159 72.758L62.0415 72.2592L62.1636 72.5875L61.2484 72.9319L61.4182 73.3888L62.2335 73.0819L62.3556 73.4103L61.5402 73.7171L61.7471 74.2739L62.6623 73.9295L62.7843 74.2579L61.4586 74.7567L60.7159 72.758Z" fill="#F6F6F6"/>
<path d="M63.5771 71.6595L64.8521 71.0425L65.0031 71.3586L64.123 71.7845L64.3331 72.2243L65.1173 71.8448L65.2683 72.1609L64.4841 72.5404L64.7402 73.0763L65.6203 72.6504L65.7713 72.9665L64.4963 73.5835L63.5771 71.6595Z" fill="#F6F6F6"/>
<path d="M66.318 70.3238L66.9686 69.9281C67.4665 69.6252 67.8916 69.7671 68.2438 70.3538C68.3797 70.5802 68.4617 70.7799 68.4898 70.9529C68.5169 71.1242 68.4899 71.2785 68.4089 71.4157C68.3296 71.5519 68.1919 71.6796 67.9958 71.7989L67.4155 72.1519L66.318 70.3238ZM67.8546 71.4748C67.9535 71.4147 68.0193 71.3449 68.0522 71.2655C68.085 71.1861 68.0863 71.0914 68.0558 70.9816C68.0272 70.8707 67.9658 70.7369 67.8717 70.5802C67.7473 70.373 67.629 70.243 67.5167 70.1901C67.4033 70.1354 67.2781 70.1498 67.1411 70.2331L66.873 70.3962L67.6099 71.6236L67.8546 71.4748Z" fill="#F6F6F6"/>
<path d="M71.0206 69.8804C70.8921 69.9763 70.7564 70.037 70.6138 70.0624C70.4727 70.0866 70.3335 70.0739 70.1961 70.0244L70.2542 69.677C70.3549 69.7007 70.4585 69.7044 70.5651 69.6882C70.6717 69.672 70.7584 69.639 70.8251 69.5892C70.9 69.5333 70.9476 69.4712 70.9678 69.4029C70.9881 69.3345 70.9778 69.2726 70.9368 69.217C70.9067 69.1761 70.8747 69.148 70.8408 69.1328C70.8069 69.1176 70.76 69.1121 70.7 69.1163C70.6388 69.1188 70.545 69.1318 70.4185 69.1553C70.2519 69.1859 70.1144 69.2011 70.0059 69.201C69.8973 69.2009 69.8037 69.1834 69.725 69.1484C69.6467 69.1106 69.5774 69.0508 69.5172 68.969C69.451 68.8791 69.4162 68.7822 69.4128 68.6783C69.4094 68.5744 69.437 68.4714 69.4955 68.3694C69.5541 68.2674 69.6395 68.1746 69.7518 68.0907C69.8755 67.9984 70.002 67.9408 70.1313 67.9177C70.2623 67.8935 70.3804 67.9067 70.4858 67.9573L70.3864 68.2898C70.2304 68.2492 70.093 68.2732 69.9742 68.3619C69.8993 68.4177 69.8524 68.4756 69.8334 68.5354C69.8144 68.5952 69.8247 68.6521 69.8645 68.706C69.8886 68.7387 69.92 68.7609 69.9588 68.7724C69.9992 68.7828 70.0577 68.7835 70.1343 68.7745C70.2109 68.7655 70.3216 68.7462 70.4663 68.7167C70.6066 68.6881 70.7241 68.6764 70.8188 68.6817C70.9151 68.6858 70.9986 68.7084 71.0692 68.7495C71.1398 68.7906 71.2058 68.8528 71.2672 68.9362C71.3395 69.0343 71.3781 69.1398 71.383 69.2526C71.3884 69.3627 71.3597 69.4727 71.2971 69.5828C71.2348 69.6901 71.1427 69.7893 71.0206 69.8804Z" fill="#F6F6F6"/>
<path d="M72.8489 65.6197L73.1653 65.3203L74.6204 66.8789L74.304 67.1783L72.8489 65.6197Z" fill="#F6F6F6"/>
<path d="M74.6948 64.2767L74.2687 64.7456L74.0312 64.5268L75.1785 63.2644L75.4159 63.4832L74.9898 63.9521L76.3205 65.1781L76.0255 65.5027L74.6948 64.2767Z" fill="#F6F6F6"/>
<path d="M43.1921 65.4855C42.8266 64.3077 42.6337 62.8286 42.583 62.2363C43.5172 63.9015 44.0214 66.0778 44.1567 66.9577C44.5459 67.2116 46.1874 67.7193 49.6396 67.7193C53.0919 67.7193 55.8502 67.2116 56.7979 66.9577C56.8318 66.5854 56.9807 65.587 57.3056 64.5717C57.6305 63.5563 58.1517 62.5917 58.3717 62.2363C58.3886 62.4732 58.3311 63.272 57.9656 64.5717C57.6 65.8713 57.6102 67.2116 57.661 67.7193C56.2395 68.0577 52.6451 68.7245 49.6396 68.6838C46.6342 68.6432 44.089 68.0239 43.1921 67.7193C43.3444 67.4654 43.5576 66.6633 43.1921 65.4855Z" fill="url(#paint1_linear_433_163)"/>
<path d="M43.6483 10.253L43.2422 10.5576L44.5622 11.0145L44.816 10.7099L43.6483 10.253Z" fill="#F6F6F6"/>
<path d="M44.5114 10.0499C44.4302 9.84681 44.2068 9.93142 44.1052 9.99911C43.9428 10.2022 44.1729 10.2868 44.3083 10.3037C44.4098 10.3037 44.5926 10.253 44.5114 10.0499Z" fill="#F6F6F6"/>
<path d="M44.9683 10.253C44.8465 10.3342 44.9514 10.456 45.0191 10.5068C45.2221 10.7606 45.476 10.7099 45.5267 10.6083C45.5775 10.5068 45.5267 10.4053 45.3744 10.3037C45.2221 10.2022 45.1206 10.1514 44.9683 10.253Z" fill="#F6F6F6"/>
<path d="M46.1867 9.03453C45.8618 8.9533 45.2391 9.37298 44.9683 9.59298C44.9683 9.89756 45.7298 9.94838 45.8821 10.1007C46.004 10.2225 46.2036 10.1853 46.2883 10.1514C46.4236 10.0838 46.7452 9.92807 46.9482 9.84684C47.2021 9.74531 47.2529 9.69454 47.3036 9.64377C47.3442 9.60316 47.2867 9.52531 47.2529 9.49147L46.8467 9.23763C46.7452 9.18686 46.471 9.07516 46.1867 9.03453Z" fill="#F6F6F6"/>
<path d="M53.0912 6.75C51.7103 6.83123 48.1497 8.20535 46.5421 8.88225L47.1513 9.28839C47.9636 9.94838 48.1159 8.93302 52.2789 7.96843C53.2358 7.74669 53.4635 7.74844 53.4465 7.71459C53.609 7.1866 53.2773 6.85154 53.0912 6.75Z" fill="#F6F6F6"/>
<ellipse cx="46.1376" cy="9.58978" rx="0.304607" ry="0.253839" fill="black"/>
<ellipse cx="48.371" cy="8.67767" rx="0.304607" ry="0.253839" fill="black"/>
<ellipse cx="49.5898" cy="8.1679" rx="0.304607" ry="0.253839" fill="black"/>
<ellipse cx="50.7079" cy="7.76361" rx="0.304607" ry="0.253839" fill="black"/>
<ellipse cx="51.9257" cy="7.45892" rx="0.304607" ry="0.253839" fill="black"/>
<path d="M45.684 40.6706C45.4043 40.7361 45.5883 40.9339 45.7153 41.0246C45.9795 41.2458 46.1449 42.0398 46.1946 42.4092C46.2317 42.253 46.3098 41.8689 46.3252 41.5822C46.3445 41.2237 46.0335 40.5887 45.684 40.6706Z" fill="#F6142C"/>
<path d="M46.7967 42.6061C46.536 42.7265 46.756 42.8832 46.8986 42.9466C47.2019 43.1102 47.5235 43.8547 47.6465 44.2066C47.6514 44.0461 47.6508 43.6542 47.6082 43.3701C47.555 43.0151 47.1226 42.4556 46.7967 42.6061Z" fill="#F6142C"/>
<path d="M48.0145 44.5377C47.7537 44.6581 47.9737 44.8149 48.1163 44.8782C48.4196 45.0418 48.7413 45.7864 48.8642 46.1382C48.8692 45.9777 48.8685 45.5858 48.826 45.3018C48.7727 44.9468 48.3404 44.3872 48.0145 44.5377Z" fill="#F6142C"/>
<path d="M55.0712 40.7175C54.5838 40.9205 54.5297 41.2759 54.5635 41.4282C55.0204 40.9206 55.325 40.9205 55.4773 40.8698C55.6296 40.819 55.6804 40.4636 55.0712 40.7175Z" fill="#F6142C"/>
<path d="M53.7512 42.6466C53.4263 42.7684 53.3112 43.1373 53.2943 43.3065C53.5481 43.4588 53.4796 42.8496 53.9035 42.9004C54.2426 42.941 54.2479 42.7481 54.2081 42.6466C54.1912 42.5958 54.0761 42.5247 53.7512 42.6466Z" fill="#F6142C"/>
<path d="M52.7359 44.4742C52.086 44.596 51.9236 45.1003 51.9236 45.3373C52.1673 45.1342 52.4989 44.948 52.6343 44.8803L52.9897 44.728C53.1758 44.5927 53.3857 44.3524 52.7359 44.4742Z" fill="#F6142C"/>
<path d="M54.4112 42.9512C55.2743 42.6973 54.9189 42.8496 55.9342 42.342C56.1373 42.4435 55.7312 42.9512 55.122 43.1035C54.6346 43.2253 54.445 43.0527 54.4112 42.9512Z" fill="#F6142C"/>
<path d="M53.7512 44.6265C54.1167 44.6265 54.7158 43.9835 54.9696 43.6619C55.0525 43.5604 55.3758 43.7127 55.0204 44.1188C54.7666 44.4234 54.5635 44.728 53.9035 45.0327C53.3755 45.2763 53.2435 45.0665 53.2435 44.9311C53.2605 44.8296 53.3857 44.6265 53.7512 44.6265Z" fill="#F6142C"/>
<path d="M51.8728 46.708C52.4313 46.5049 52.7866 46.3526 53.3958 45.8449C53.6497 45.7942 53.802 45.8449 53.2943 46.4034C52.7866 46.9618 52.2789 47.0126 51.9743 47.1141C51.6697 47.2157 51.3144 46.9111 51.8728 46.708Z" fill="#F6142C"/>
<path d="M35.5781 34.2674C35.5781 33.78 35.6797 33.5566 35.7304 33.5059H65.1758C65.2096 33.5905 65.2875 33.8105 65.3281 34.0135C65.3687 34.2166 65.345 34.5043 65.3281 34.6228H35.5781V34.2674Z" fill="black"/>
<path d="M40.0194 31.899C40.0286 31.436 39.604 31.288 39.3906 31.2719L39.5391 31.8627C39.8164 32.9656 40.6902 33.2484 41.0925 33.2519C40.7309 32.9939 40.0102 32.362 40.0194 31.899Z" fill="#F31430"/>
<path d="M40.0194 31.899C40.0286 31.436 39.604 31.288 39.3906 31.2719L39.5391 31.8627C39.8164 32.9656 40.6902 33.2484 41.0925 33.2519C40.7309 32.9939 40.0102 32.362 40.0194 31.899Z" fill="#F31430"/>
<path d="M40.6278 33.8287C40.637 33.3657 40.2124 33.2177 39.999 33.2016L40.1475 33.7924C40.4248 34.8953 41.2986 35.1781 41.7009 35.1816C41.3393 34.9236 40.6186 34.2916 40.6278 33.8287Z" fill="#F31430"/>
<path d="M40.6278 33.8287C40.637 33.3657 40.2124 33.2177 39.999 33.2016L40.1475 33.7924C40.4248 34.8953 41.2986 35.1781 41.7009 35.1816C41.3393 34.9236 40.6186 34.2916 40.6278 33.8287Z" fill="#F31430"/>
<path d="M41.745 35.8599C41.7542 35.3969 41.3296 35.2489 41.1161 35.2328L41.2647 35.8236C41.542 36.9265 42.4158 37.2093 42.818 37.2129C42.4565 36.9548 41.7357 36.3229 41.745 35.8599Z" fill="#F31430"/>
<path d="M41.745 35.8599C41.7542 35.3969 41.3296 35.2489 41.1161 35.2328L41.2647 35.8236C41.542 36.9265 42.4158 37.2093 42.818 37.2129C42.4565 36.9548 41.7357 36.3229 41.745 35.8599Z" fill="#F31430"/>
<path d="M42.8612 37.8873C42.8704 37.4243 42.4458 37.2763 42.2324 37.2602L42.3809 37.851C42.6582 38.9538 43.532 39.2367 43.9343 39.2402C43.5727 38.9821 42.852 38.3502 42.8612 37.8873Z" fill="#F31430"/>
<path d="M42.8612 37.8873C42.8704 37.4243 42.4458 37.2763 42.2324 37.2602L42.3809 37.851C42.6582 38.9538 43.532 39.2367 43.9343 39.2402C43.5727 38.9821 42.852 38.3502 42.8612 37.8873Z" fill="#F31430"/>
<path d="M43.9516 39.9445C43.9081 39.4835 43.4695 39.3847 43.2556 39.3929L43.4703 39.963C43.8711 41.0273 44.7713 41.209 45.1714 41.1669C44.7829 40.9515 43.995 40.4056 43.9516 39.9445Z" fill="#F31430"/>
<path d="M43.9516 39.9445C43.9081 39.4835 43.4695 39.3847 43.2556 39.3929L43.4703 39.963C43.8711 41.0273 44.7713 41.209 45.1714 41.1669C44.7829 40.9515 43.995 40.4056 43.9516 39.9445Z" fill="#F31430"/>
<path d="M39.2258 29.5515C39.3269 29.0996 38.9403 28.8701 38.7343 28.8118L38.7624 29.4204C38.8147 30.5564 39.6147 31.0074 40.0082 31.0909C39.7053 30.7661 39.1246 30.0034 39.2258 29.5515Z" fill="#F31430"/>
<path d="M39.2258 29.5515C39.3269 29.0996 38.9403 28.8701 38.7343 28.8118L38.7624 29.4204C38.8147 30.5564 39.6147 31.0074 40.0082 31.0909C39.7053 30.7661 39.1246 30.0034 39.2258 29.5515Z" fill="#F31430"/>
<path d="M39.5851 27.5135C39.6257 27.2698 39.4328 27.3442 39.3312 27.4119C38.6713 27.7673 39.1282 29.138 39.6358 29.3919C40.1435 29.6457 39.6866 29.4934 39.5343 28.7319C39.382 27.9704 39.5343 27.8181 39.5851 27.5135Z" fill="#F6142C"/>
<path d="M39.9431 28.5789C39.6588 28.6196 39.8247 28.8328 39.9431 28.9343C40.1868 29.178 40.2816 29.9835 40.2985 30.3558C40.3492 30.2035 40.4609 29.8278 40.5015 29.5435C40.5523 29.1882 40.2985 28.5282 39.9431 28.5789Z" fill="#F6142C"/>
<path d="M40.4027 30.612C40.1231 30.6775 40.3071 30.8753 40.434 30.966C40.6983 31.1872 40.8637 31.9812 40.9133 32.3506C40.9505 32.1944 41.0286 31.8103 41.044 31.5236C41.0632 31.1651 40.7522 30.5301 40.4027 30.612Z" fill="#F6142C"/>
<path d="M41.3168 32.6413C41.0372 32.7068 41.2211 32.9046 41.3481 32.9953C41.6123 33.2165 41.7777 34.0105 41.8274 34.3799C41.8645 34.2237 41.9427 33.8396 41.9581 33.5529C41.9773 33.1944 41.6663 32.5594 41.3168 32.6413Z" fill="#F6142C"/>
<path d="M42.2299 34.6745C41.9502 34.74 42.1342 34.9378 42.2612 35.0285C42.5254 35.2497 42.6908 36.0437 42.7405 36.4131C42.7776 36.2569 42.8557 35.8728 42.8711 35.5861C42.8904 35.2276 42.5794 34.5926 42.2299 34.6745Z" fill="#F6142C"/>
<path d="M43.4496 36.7018C43.17 36.7673 43.354 36.9651 43.4809 37.0558C43.7451 37.277 43.9105 38.0711 43.9602 38.4405C43.9973 38.2843 44.0755 37.9002 44.0909 37.6134C44.1101 37.255 43.7991 36.6199 43.4496 36.7018Z" fill="#F6142C"/>
<path d="M44.6664 38.735C44.3868 38.8005 44.5708 38.9983 44.6977 39.089C44.9619 39.3103 45.1273 40.1043 45.177 40.4737C45.2141 40.3175 45.2923 39.9334 45.3077 39.6466C45.3269 39.2882 45.0159 38.6531 44.6664 38.735Z" fill="#F6142C"/>
<path d="M60.847 31.864C60.8377 31.401 61.2623 31.2529 61.4757 31.2367L61.3273 31.8276C61.0502 32.9305 60.1765 33.2136 59.7743 33.2172C60.1358 32.959 60.8564 32.327 60.847 31.864Z" fill="#F6F6F6"/>
<path d="M60.847 31.864C60.8377 31.401 61.2623 31.2529 61.4757 31.2367L61.3273 31.8276C61.0502 32.9305 60.1765 33.2136 59.7743 33.2172C60.1358 32.959 60.8564 32.327 60.847 31.864Z" fill="#F6F6F6"/>
<path d="M60.2367 33.7937C60.2274 33.3307 60.6519 33.1826 60.8654 33.1664L60.7169 33.7573C60.4399 34.8602 59.5662 35.1432 59.1639 35.1469C59.5254 34.8887 60.246 34.2567 60.2367 33.7937Z" fill="#F6F6F6"/>
<path d="M60.2367 33.7937C60.2274 33.3307 60.6519 33.1826 60.8654 33.1664L60.7169 33.7573C60.4399 34.8602 59.5662 35.1432 59.1639 35.1469C59.5254 34.8887 60.246 34.2567 60.2367 33.7937Z" fill="#F6F6F6"/>
<path d="M59.1205 35.823C59.1111 35.36 59.5357 35.2119 59.7491 35.1957L59.6007 35.7866C59.3237 36.8895 58.4499 37.1725 58.0477 37.1762C58.4092 36.918 59.1298 36.286 59.1205 35.823Z" fill="#F6F6F6"/>
<path d="M59.1205 35.823C59.1111 35.36 59.5357 35.2119 59.7491 35.1957L59.6007 35.7866C59.3237 36.8895 58.4499 37.1725 58.0477 37.1762C58.4092 36.918 59.1298 36.286 59.1205 35.823Z" fill="#F6F6F6"/>
<path d="M58.0023 37.8562C57.993 37.3932 58.4175 37.2451 58.631 37.2289L58.4826 37.8198C58.2055 38.9227 57.3318 39.2057 56.9296 39.2094C57.291 38.9512 58.0116 38.3192 58.0023 37.8562Z" fill="#F6F6F6"/>
<path d="M58.0023 37.8562C57.993 37.3932 58.4175 37.2451 58.631 37.2289L58.4826 37.8198C58.2055 38.9227 57.3318 39.2057 56.9296 39.2094C57.291 38.9512 58.0116 38.3192 58.0023 37.8562Z" fill="#F6F6F6"/>
<path d="M56.9139 39.9076C56.9572 39.4466 57.3958 39.3476 57.6097 39.3558L57.3951 39.926C56.9946 40.9903 56.0944 41.1723 55.6943 41.1302C56.0828 40.9148 56.8705 40.3686 56.9139 39.9076Z" fill="#F6F6F6"/>
<path d="M56.9139 39.9076C56.9572 39.4466 57.3958 39.3476 57.6097 39.3558L57.3951 39.926C56.9946 40.9903 56.0944 41.1723 55.6943 41.1302C56.0828 40.9148 56.8705 40.3686 56.9139 39.9076Z" fill="#F6F6F6"/>
<path d="M61.6358 29.5165C61.5345 29.0646 61.9211 28.835 62.1271 28.7767L62.0992 29.3853C62.0471 30.5213 61.2472 30.9725 60.8537 31.0561C61.1566 30.7312 61.737 29.9683 61.6358 29.5165Z" fill="#F6F6F6"/>
<path d="M61.6358 29.5165C61.5345 29.0646 61.9211 28.835 62.1271 28.7767L62.0992 29.3853C62.0471 30.5213 61.2472 30.9725 60.8537 31.0561C61.1566 30.7312 61.737 29.9683 61.6358 29.5165Z" fill="#F6F6F6"/>
<path d="M61.2763 27.4765C61.2356 27.2328 61.4286 27.3072 61.5301 27.3749C62.1902 27.7301 61.7336 29.101 61.226 29.3549C60.7184 29.6089 61.1752 29.4565 61.3273 28.6949C61.4795 27.9334 61.3271 27.7811 61.2763 27.4765Z" fill="#F6F6F6"/>
<path d="M60.9211 28.5419C61.2055 28.5824 61.0397 28.7957 60.9212 28.8972C60.6776 29.141 60.583 29.9465 60.5662 30.3188C60.5154 30.1665 60.4036 29.7909 60.3629 29.5066C60.3121 29.1512 60.5658 28.4912 60.9211 28.5419Z" fill="#F6F6F6"/>
<path d="M60.4586 30.5749C60.7383 30.6403 60.5543 30.8382 60.4274 30.9289C60.1632 31.1502 59.998 31.9443 59.9484 32.3137C59.9112 32.1575 59.833 31.7734 59.8176 31.4867C59.7982 31.1282 60.1091 30.4931 60.4586 30.5749Z" fill="#F6F6F6"/>
<path d="M59.5465 32.6081C59.8261 32.6735 59.6422 32.8714 59.5153 32.9621C59.2511 33.1834 59.0859 33.9775 59.0363 34.3469C58.9991 34.1907 58.9209 33.8066 58.9054 33.5199C58.8861 33.1614 59.197 32.5263 59.5465 32.6081Z" fill="#F6F6F6"/>
<path d="M58.6325 34.6374C58.9121 34.7028 58.7281 34.9007 58.6012 34.9914C58.337 35.2127 58.1718 36.0068 58.1223 36.3762C58.0851 36.22 58.0068 35.8359 57.9914 35.5492C57.972 35.1907 58.2829 34.5556 58.6325 34.6374Z" fill="#F6F6F6"/>
<path d="M57.4157 36.6706C57.6953 36.736 57.5113 36.9339 57.3844 37.0246C57.1202 37.2459 56.955 38.04 56.9055 38.4094C56.8683 38.2532 56.79 37.8691 56.7746 37.5824C56.7553 37.2239 57.0661 36.5888 57.4157 36.6706Z" fill="#F6F6F6"/>
<path d="M56.1969 38.6999C56.4765 38.7653 56.2926 38.9632 56.1657 39.0539C55.9015 39.2752 55.7363 40.0693 55.6867 40.4387C55.6495 40.2825 55.5713 39.8984 55.5558 39.6117C55.5365 39.2532 55.8474 38.6181 56.1969 38.6999Z" fill="#F6F6F6"/>
<path d="M32.0729 49.9529L67.9658 50.0169C67.9288 50.1043 67.8547 50.4367 67.7992 50.5941C67.7137 50.8363 67.5955 51.0839 67.5214 51.1713L32.3268 51.1713C32.2712 51.0664 32.184 50.3202 32.0729 49.9529Z" fill="black"/>
<path d="M45.0034 41.8012C44.9493 41.3413 44.5085 41.2527 44.2948 41.2659L44.5227 41.8309C44.9482 42.8855 45.8524 43.0463 46.2513 42.9948C45.8579 42.7886 45.0576 42.2611 45.0034 41.8012Z" fill="#F31430"/>
<path d="M45.0034 41.8012C44.9493 41.3413 44.5085 41.2527 44.2948 41.2659L44.5227 41.8309C44.9482 42.8855 45.8524 43.0463 46.2513 42.9948C45.8579 42.7886 45.0576 42.2611 45.0034 41.8012Z" fill="#F31430"/>
<path d="M46.4253 43.729C46.3712 43.2691 45.9303 43.1805 45.7167 43.1937L45.9446 43.7586C46.37 44.8133 47.2743 44.974 47.6732 44.9226C47.2798 44.7163 46.4794 44.1889 46.4253 43.729Z" fill="#F31430"/>
<path d="M46.4253 43.729C46.3712 43.2691 45.9303 43.1805 45.7167 43.1937L45.9446 43.7586C46.37 44.8133 47.2743 44.974 47.6732 44.9226C47.2798 44.7163 46.4794 44.1889 46.4253 43.729Z" fill="#F31430"/>
<path d="M47.8452 45.6606C47.7911 45.2007 47.3502 45.1121 47.1366 45.1253L47.3645 45.6903C47.7899 46.7449 48.6942 46.9057 49.0931 46.8542C48.6997 46.648 47.8994 46.1205 47.8452 45.6606Z" fill="#F31430"/>
<path d="M47.8452 45.6606C47.7911 45.2007 47.3502 45.1121 47.1366 45.1253L47.3645 45.6903C47.7899 46.7449 48.6942 46.9057 49.0931 46.8542C48.6997 46.648 47.8994 46.1205 47.8452 45.6606Z" fill="#F31430"/>
<path d="M39.0288 11.5245C38.0946 10.7123 41.6179 5.90623 43.4963 3.60475C44.4947 3.60475 47.1922 3.52352 49.9946 3.19861C53.4976 2.79247 54.6144 5.17856 53.1929 5.737C51.7714 6.29545 48.0654 6.19392 39.0288 11.5245Z" fill="#606060" fill-opacity="0.34"/>
<path d="M52.8378 4.41782C52.4824 4.11321 52.3301 4.06245 49.6394 3.85938C48.4717 3.85938 46.045 3.97106 45.6795 4.41782C45.2226 4.97627 47.2025 4.9255 49.3856 4.7732C51.132 4.65135 49.9779 6.04239 49.1825 6.75314L52.6347 5.78855C52.7024 5.68702 52.8784 5.44333 53.0408 5.28088C53.2439 5.0778 53.1932 4.72243 52.8378 4.41782Z" fill="black"/>
<path d="M36.0335 35.3341C36.1147 33.1003 37.7934 31.0527 38.6226 30.3081C36.2264 33.7197 36.575 37.1448 37.0488 38.4309C36.7645 35.7504 37.1673 35.0126 37.4042 34.9787C37.1504 37.8217 37.9626 39.8017 37.9626 40.8678C37.3027 40.2586 35.9319 38.1263 36.0335 35.3341Z" fill="#F31430"/>
<path d="M34.9166 45.0307C34.6729 43.3249 35.5596 41.1385 36.0335 40.2586C35.2837 43.1465 35.5551 45.1232 35.8449 46.1386C35.5148 44.6577 36.0335 41.7508 36.0335 43C36.0335 44.1372 36.3719 45.64 36.5411 46.2492C36.7104 46.4353 36.9473 47.1325 36.5411 48.4322C35.1196 46.7061 35.2212 47.163 34.9166 45.0307Z" fill="#F31430"/>
<path d="M37.9626 51.0721C37.0692 48.8383 37.8611 46.3846 38.3688 45.4369C36.795 50.6152 40.2979 53.6105 39.2826 52.0367C38.4703 50.7777 38.5042 50.0568 38.6226 49.8537C38.7242 50.2598 39.2014 51.397 40.2979 52.6967C41.3945 53.9964 41.3641 54.592 41.2118 54.7274C40.501 54.4397 38.8561 53.3059 37.9626 51.0721Z" fill="#F31430"/>
<path d="M38.978 50.1075C38.45 49.0109 38.758 47.9922 38.978 47.6199C38.978 48.0091 39.0389 48.9399 39.2826 49.5491C39.5263 50.1583 40.3656 51.2244 40.7549 51.6813C40.3826 51.6136 39.506 51.2041 38.978 50.1075Z" fill="#F31430"/>
<path d="M39.2826 43C38.7952 41.3755 39.2149 39.8863 39.4857 39.3447C39.1607 42.3502 39.9933 43.7446 40.4502 44.0662C39.841 43.6194 39.8241 42.1877 39.8918 41.5278C40.0136 42.5431 40.6872 43.5077 41.0087 43.8631C40.5619 44.5535 40.3487 45.2 40.2979 45.4369C40.1626 45.3015 39.77 44.6246 39.2826 43Z" fill="#F31430"/>
<path d="M42.0748 45.0307C42.5622 44.056 43.3271 43.4739 43.6486 43.3046L42.5825 44.6246C42.7856 44.4385 43.344 44.0255 43.9532 43.8631C44.7147 43.66 43.6486 44.0662 43.1917 44.3708C42.8262 44.6144 43.1748 44.9123 43.3948 45.0307H42.0748Z" fill="#F31430"/>
<path d="M42.0748 46.6553C42.4403 46.2492 43.4794 45.2677 43.9532 44.8277C44.5117 44.5231 43.6486 45.5384 43.0902 46.0969C42.6434 46.5436 42.2948 47.0953 42.1764 47.3153C42.9886 46.6553 42.7856 46.8076 43.8009 46.4522C41.9733 47.8331 41.7871 49.0245 41.9225 49.4476C41.9098 48.7485 42.4173 48.3825 42.5567 48.2687C42.5644 48.2433 42.573 48.2291 42.5825 48.2291C42.6018 48.2291 42.5894 48.242 42.5567 48.2687C42.4814 48.5149 42.4857 49.8158 42.5317 49.4476C42.5723 49.1226 43.3948 49.1768 43.8009 49.2445C42.4302 49.346 42.3794 52.2678 42.5825 51.2752C42.745 50.4811 43.6655 49.9967 44.1055 49.8537L43.6486 50.2598C43.2932 50.8014 42.8566 52.0469 43.9532 52.6967C45.0498 53.3465 45.5609 54.0844 45.6793 54.372C46.451 55.8341 47.2193 56.1997 47.507 56.1997C47.0602 55.6717 46.8808 54.5243 46.847 54.0167C47.7405 56.6566 49.4192 57.3843 50.1469 57.4181C48.9285 57.5196 48.7762 57.5704 48.0654 56.8597C47.3547 56.1489 46.9485 56.6566 46.2886 55.9966C45.6286 55.3366 45.4763 55.1843 45.1717 54.372C44.8671 53.5597 43.1917 53.1536 42.9379 52.8998C42.684 52.6459 42.2271 52.189 42.0748 51.6813C41.9225 51.1737 42.0748 50.7167 41.9225 50.2598C41.7702 49.8029 41.5671 49.8537 41.3641 48.7876C41.161 47.7214 41.6179 47.163 42.0748 46.6553Z" fill="#F31430"/>
<path d="M40.5518 24.6728L40.6533 25.8405C40.3183 24.6221 40.3107 23.6067 40.3487 23.2513C40.9072 25.282 41.4148 25.8405 41.6687 26.2974C42.14 27.8204 42.3287 30.7142 42.5825 32.5418C42.7856 34.004 43.1748 34.911 43.344 35.1818C43.2425 33.7603 43.2932 34.6741 43.0394 33.4557C42.7856 32.2372 42.5317 28.7343 42.5825 28.7343C42.6231 28.7343 42.904 30.4604 43.0394 31.3234C43.0563 30.2404 42.877 27.7189 42.0241 26.2974C40.9579 24.5205 40.9579 24.0636 40.8056 23.9113C40.6838 23.7895 40.4841 21.8298 40.3995 20.8652C40.3487 21.0006 40.2066 21.7181 40.0441 23.5052C39.8816 25.2922 40.9579 27.2958 41.5164 28.0743C41.2625 26.5005 41.0595 27.0589 40.9579 25.9928C40.8767 25.1399 40.6533 24.7574 40.5518 24.6728Z" fill="#F31430"/>
<path d="M44.1055 34.268C43.2932 32.0748 43.4625 30.7142 43.6486 30.3081C43.8923 32.7043 44.7317 35.0972 45.1209 35.9941C45.0397 35.5067 44.7486 34.0987 44.6132 33.4557C45.5064 35.0396 45.8653 38.3802 45.9332 39.8524H45.5778C45.4255 38.9048 44.9178 36.4611 44.1055 34.268Z" fill="#F31430"/>
<path d="M46.2886 37.6186C45.4763 36.1159 45.0363 31.5773 44.9178 29.4958C45.5676 34.4913 46.9485 38.5832 47.5577 40.0047L46.9485 39.8524C46.8673 39.5275 46.4747 38.2278 46.2886 37.6186Z" fill="#F31430"/>
<path d="M47.9131 39.3447C47.8624 39.294 47.6288 38.6746 47.1008 36.6033C46.5909 34.6027 46.4503 31.3992 46.4413 29.9019C46.5635 30.3893 46.9319 33.1172 47.1008 34.4203L47.9131 39.3447Z" fill="#F31430"/>
<path d="M53.0914 33.3034C53.2539 31.3539 53.5314 30.7311 53.6499 30.6634C53.2945 33.2018 53.5484 31.5773 53.2438 35.4356C53.0001 38.5223 52.6007 39.1924 52.4315 39.1417C52.7361 37.5679 52.8884 35.7403 53.0914 33.3034L53.0914 33.3034Z" fill="#F31430"/>
<path d="M48.7254 47.1122C48.563 46.9498 48.4885 47.1799 48.4716 47.3153C48.387 47.7722 48.4716 48.8383 49.4869 49.4476C50.5023 50.0568 51.3992 49.4645 51.7207 49.0922C50.949 49.4577 50.1469 49.4137 49.8423 49.346C48.4208 48.5337 48.9285 47.3153 48.7254 47.1122Z" fill="#F31430"/>
<path d="M58.4728 41.9339C58.2292 41.5684 58.7436 41.1385 59.0313 40.9693C58.879 41.7816 58.9298 41.8324 59.4882 42.797C59.935 43.5686 60.0128 44.0662 59.9959 44.2185L58.4728 41.9339Z" fill="#F31430"/>
<path d="M60.0974 50.0568C60.4629 49.2039 60.9943 48.6183 61.2143 48.4322C60.6559 49.7522 60.2497 50.9706 59.9959 51.6306C59.742 52.2906 59.6405 51.1229 60.0974 50.0568Z" fill="#F31430"/>
<path d="M59.0313 53.6105C58.6251 53.0013 58.1852 53.0182 58.0159 53.1028C58.9298 53.7628 58.879 54.0167 59.1836 54.372C59.4882 54.7274 59.742 54.7782 59.6405 54.5751C59.539 54.372 59.539 54.372 59.0313 53.6105Z" fill="#F31430"/>
<path d="M59.5404 23.2531C59.7435 20.9787 60.0989 20.207 60.2512 20.1055C60.7081 21.8823 60.8604 23.05 60.8096 24.573C60.769 25.7915 59.9466 27.416 59.5404 28.076C59.422 27.9576 59.3069 27.477 59.7943 26.5022C60.2817 25.5275 60.3019 24.4715 60.2512 24.0654C59.5607 25.5681 59.0835 26.8238 58.9312 27.2637C58.7282 30.0661 58.3389 32.5267 58.1697 33.4067L58.9312 31.4775C59.4186 29.5686 59.9127 28.9898 60.0989 28.9391C59.977 29.3858 59.9804 29.9375 59.9974 30.1575C59.9297 30.2083 59.7435 30.3707 59.5404 30.6144C59.3374 30.8581 59.3543 31.6975 59.3881 32.0867C59.0632 32.1273 58.8466 32.3405 58.7789 32.4421C58.5759 33.0513 58.5589 33.8128 58.5759 34.1174C58.4912 34.1174 58.2509 34.2088 57.9666 34.5743C57.6823 34.9398 57.679 35.6743 57.7128 35.9958C57.1848 36.077 56.7821 36.5035 56.6467 36.7066C56.6974 36.0466 56.9513 34.9297 57.1544 34.1174C57.3168 33.4676 57.3574 32.5944 57.3574 32.239C56.7482 34.6759 57.0528 33.6605 56.2405 35.8943C55.5907 37.6813 55.3267 39.4142 55.2759 40.0572C55.0729 39.976 54.7513 40.1588 54.616 40.2603C54.5652 40.0742 54.5246 39.4582 54.7683 38.4834C55.0119 37.5087 55.2083 35.945 55.2759 35.2851C54.9544 36.4527 54.2707 38.9302 54.1083 39.4988C53.9458 40.0674 53.4314 40.1757 53.1945 40.1588L54.3114 40.768L54.2098 41.7326C53.1944 41.6311 53.499 41.7326 52.1283 41.2249C51.0318 40.8188 49.8438 40.9541 49.3869 41.0726C47.3562 41.8849 46.8146 41.851 46.7977 41.7326L48.27 40.9203C49.4884 39.9862 50.3345 39.9557 50.6053 40.0572C50.2398 39.7323 49.3699 39.9219 48.9807 40.0572C48.0872 40.504 46.9162 40.7172 46.4423 40.768C47.2546 40.3619 49.1229 39.4988 50.0976 39.2957C51.0724 39.0927 51.9253 39.5834 52.2299 39.8542C53.3265 40.3009 53.6344 39.668 53.6514 39.2957C53.296 39.8542 53.0421 39.7019 52.9914 39.7019C52.9507 39.7019 53.3129 36.9943 53.499 35.6404C53.9052 34.8688 54.1421 30.8513 54.2098 28.9391C54.7784 30.8886 53.9729 35.5051 53.499 37.5696C53.5837 37.9081 53.8443 37.9961 54.2098 35.6404C54.5753 33.2848 55.3436 30.1914 55.6821 28.9391C56.1694 29.7514 55.8851 32.0867 55.6821 33.1528C56.122 32.0867 57.1036 29.4772 57.5097 27.5683C58.0174 25.1823 59.2866 26.0961 59.5404 23.2531Z" fill="#606060"/>
<path d="M39.5887 49.2462C39.0607 48.2309 39.0979 47.3678 39.1825 47.0632C39.741 48.7893 39.3348 47.6724 40.2994 49.2462C41.0711 50.5053 41.0609 51.3616 40.9594 51.6323C40.0963 49.6524 40.2486 50.5154 39.5887 49.2462Z" fill="#606060"/>
<path d="M40.2994 41.3772C39.5683 39.7933 39.9948 38.4496 40.2994 37.9758C41.1929 40.3314 42.1609 41.4618 42.5332 41.7326L42.1778 42.3418C41.2031 41.6514 40.5194 40.3957 40.2994 39.8542V41.3772Z" fill="#606060"/>
<path d="M40.8071 23.1515C40.6548 21.8316 41.0101 21.5777 40.5532 20.207C41.5686 22.2377 40.8071 22.2885 41.3655 23.7608C41.924 25.233 42.3809 24.9792 42.8885 26.1468C43.3962 27.3145 43.9039 29.1929 44.5131 30.8175C45.0005 32.1172 44.987 32.4421 44.9193 32.4421L43.7516 29.5483C43.0916 27.416 42.3809 26.1976 42.0255 25.5884C41.6701 24.9792 40.9594 24.4715 40.8071 23.1515Z" fill="#606060"/>
<path d="M45.1223 29.1422C45.41 30.8344 46.1377 34.5946 46.7469 36.0974C46.6115 34.642 46.0971 31.2135 45.1223 29.1422Z" fill="#606060"/>
<path d="M47.2038 31.6298C46.8383 30.3301 46.6454 29.2945 46.5946 28.9391C46.7131 29.2098 47.0312 29.9443 47.3561 30.716C47.681 31.4876 47.7623 33.2374 47.7623 34.0159C47.9653 36.8995 48.3546 39.008 48.5238 39.7019L48.27 39.8542C47.7116 37.5189 47.5084 35.2851 47.5084 34.3712C47.5084 33.6402 47.3054 32.239 47.2038 31.6298Z" fill="#606060"/>
<path d="M51.0114 45.7433C49.793 45.5402 49.1499 46.1325 48.9807 46.454C49.4275 46.2509 49.7761 46.1663 49.8945 46.1494C51.2652 46.0986 51.0114 46.7078 51.4176 46.7078C51.7425 46.7078 51.9252 46.5386 51.976 46.454C51.5699 45.9666 51.1637 45.7771 51.0114 45.7433Z" fill="#606060"/>
<path d="M52.2806 47.0632C52.3821 47.0429 52.4499 47.1648 52.4329 47.3678C52.3111 48.9112 51.0283 49.1616 50.4022 49.0939C51.1637 48.9924 51.8237 48.3832 51.7729 47.8247C51.7323 47.378 52.0268 47.114 52.2806 47.0632Z" fill="#606060"/>
<path d="M52.2299 51.4293C54.2606 49.4493 53.3467 49.957 54.3114 48.5863C54.4298 48.8062 54.3925 49.5813 53.296 50.9216C51.9252 52.5969 51.7222 52.6477 51.5191 53.9169C51.3566 54.9322 50.8422 55.7276 50.6053 55.9984C51.5699 53.7646 50.1991 53.4092 52.2299 51.4293Z" fill="#606060"/>
<path d="M61.1142 41.8849C61.3579 40.3415 60.8435 38.6019 60.5558 37.925C61.3681 38.6357 61.6727 39.6003 61.825 41.4788C61.9468 42.9815 61.0296 44.7787 60.5558 45.4894C60.7588 44.9614 60.8435 43.9833 60.8604 43.5602C60.8265 43.5602 60.6878 43.6719 60.4035 44.1187C60.6065 42.3723 60.5896 40.4465 60.5558 39.7019C60.9619 40.2299 61.0973 41.3772 61.1142 41.8849Z" fill="#606060"/>
<path d="M60.5558 51.4293C61.5711 50.3327 61.7234 48.1632 61.6727 47.2155C62.0788 47.6217 62.2142 48.637 62.2311 49.0939C62.7591 47.7537 62.6542 45.9294 62.5357 45.1848C62.8911 46.0986 63.6526 47.5201 63.1957 50.1093C62.8302 52.1806 60.9788 53.8153 60.0989 54.3738C59.8281 54.5769 59.449 54.851 60.0989 54.323C60.7487 53.795 61.5204 52.6477 61.825 52.14C61.4594 52.5462 60.9281 52.8846 60.7081 53.0031C61.561 52.1095 61.9096 50.6 61.9773 49.957C61.5711 50.7287 60.8604 51.26 60.5558 51.4293Z" fill="#606060"/>
<path d="M65.8864 43.5602C65.6833 41.4889 65.0572 40.4972 64.7695 40.2603C64.8372 40.3369 64.6883 40.972 63.5511 42.9002C64.0791 43.5501 64.4141 45.7094 64.5157 46.7078C64.8406 45.2051 64.651 43.9833 64.5157 43.5602C65.1655 44.1288 65.091 46.6402 64.9726 47.8247L65.8864 46.454C65.971 46.3525 66.0895 45.6316 65.8864 43.5602Z" fill="#606060"/>
<path d="M56.342 43.7633C56.2202 43.6415 56.5282 43.1372 56.6974 42.9002C57.5909 43.3064 58.5589 44.491 58.9312 45.0325H57.3066C57.6112 45.2694 58.3931 45.9869 59.0835 46.9617C59.9466 48.1801 59.5912 49.0939 58.9312 50.6677C58.2712 52.2415 58.8804 52.4446 57.5605 53.0031C56.5045 53.4498 55.8005 54.103 55.5805 54.3738C54.9713 56.1608 53.736 56.4722 53.1945 56.4045L54.2098 55.7953C55.4282 54.6276 54.7683 53.663 56.2405 52.8508C57.7127 52.0385 57.662 51.8862 58.0174 50.6677C57.2051 52.2415 53.6514 53.5615 52.9914 55.2876C52.4634 56.6685 51.1806 57.2845 50.6053 57.4199C51.5699 56.8614 52.1283 55.6938 52.636 54.6276C53.1436 53.5615 55.2759 51.8354 55.9867 50.9723C56.5553 50.2819 56.4943 48.0109 56.3928 46.9617C56.0882 47.2155 55.9867 50.2616 55.1744 50.9216C54.5245 51.4496 53.6513 52.0215 53.296 52.2415C53.499 51.48 55.0728 51.2262 55.1744 48.9924C55.2759 46.7586 55.2251 47.3678 55.5805 46.454C55.8648 45.7229 56.7482 45.7771 57.1543 45.8956C57.1374 45.8448 57.0223 45.6316 56.6974 45.1848C56.3725 44.738 56.3251 44.4571 56.342 44.3725H57.3066C56.8497 43.9664 56.4943 43.9156 56.342 43.7633Z" fill="#606060"/>
<path d="M73.9056 52.6484H75.0225C73.4487 56.4052 71.4891 59.1365 69.7426 60.7205C67.5596 62.7005 62.4828 66.4065 62.9905 65.4419C63.3967 64.6702 63.3289 63.3266 63.2443 62.7512C63.1597 62.1589 63.2443 60.5276 64.2597 58.7406C65.275 56.9535 63.8366 58.1652 62.9905 58.9944C63.1936 58.5544 63.8332 57.2988 64.7674 55.796C65.935 53.9176 66.0873 52.6484 65.2243 53.9176C64.5338 54.933 63.8535 55.2883 63.5997 55.3391C62.0936 56.4222 59.5484 58.2227 61.4167 56.7606C63.752 54.933 64.2597 53.2069 65.2243 51.5315C65.9959 50.1912 66.1212 48.5362 66.0873 47.8762C66.1381 48.1131 66.2396 48.8104 66.2396 49.7039C66.2396 50.3903 66.0199 50.9609 65.8336 51.2959C66.2971 50.5605 67.0012 49.2772 67.0012 48.587C67.0012 47.8153 66.4935 46.1332 66.2396 45.3886C66.1889 44.1533 66.0061 41.3475 65.6812 40.0072C65.3563 38.6669 64.9366 37.9596 64.7674 37.7734V36.4027C64.6828 36.555 64.4628 37.1744 64.2597 38.4334C64.0566 39.6925 63.7351 40.0072 63.5997 40.0072C63.5997 39.7195 63.5286 38.7888 63.2443 37.3673C62.96 35.9458 62.3474 35.7596 62.0767 35.8442C62.1951 35.9289 62.493 36.3519 62.7367 37.3673C62.9803 38.3826 62.8382 38.9749 62.7367 39.1442C62.6351 38.6872 62.361 37.5907 62.0767 36.8596C61.7924 36.1285 61.2475 35.6073 61.0105 35.4381C61.129 35.3535 61.437 35.0726 61.7213 34.6258C62.0056 34.1791 61.8398 33.5935 61.7213 33.3566C61.8398 33.492 62.2087 33.8541 62.7367 34.2197C63.2646 34.5852 63.532 35.455 63.5997 35.8442C63.6166 35.6919 63.5692 35.1538 63.2443 34.2197C62.9194 33.2855 62.3305 32.7136 62.0767 32.5443V30.9705L62.432 30.3105C62.7705 30.7505 63.6099 31.8742 64.2597 32.8489C64.9095 33.8237 64.8689 35.252 64.7674 35.8442C65.072 36.0135 65.7929 36.6362 66.2396 37.7734C66.6864 38.9106 66.9335 40.8533 67.0012 41.6826V44.7286C67.2381 45.4055 67.6916 47.0741 67.6104 48.3331C67.5291 49.5922 66.6627 51.2608 66.2396 51.9377C66.2396 52.9699 66.2092 55.1868 66.0873 55.796C65.935 56.5575 65.7827 57.2175 65.2243 58.9944C64.7775 60.4159 64.3951 62.7343 64.2597 63.7158C65.2581 63.0558 67.6916 61.2993 69.438 59.5528C71.7734 57.2175 73.1441 54.2222 73.9056 52.6484Z" fill="#606060"/>
<path d="M45.1719 16.2949C47.0401 14.386 48.421 13.7057 48.8779 13.6042C49.3179 13.4857 50.5228 13.32 51.8225 13.6042C53.447 13.9595 53.8791 14.4635 54.8685 15.1781C55.7824 15.8381 56.2112 15.9392 56.95 16.7519C57.4577 17.3103 57.3562 17.7165 57.1023 18.1734C56.8485 18.4272 56.8993 18.4272 56.5439 18.8841C56.3916 18.5626 55.9651 17.8383 55.4778 17.5134C55.0845 17.2513 54.6208 16.7952 54.3319 16.4866C54.75 16.9529 55.3883 17.7113 55.6808 18.3257C56.1885 19.3918 56.0362 20.2549 56.0362 21.6764C56.0362 22.9496 56.1885 22.641 56.3916 23.1994C56.4931 23.301 56.5946 23.504 56.5946 23.7579C56.5946 24.439 56.0362 24.2655 56.0362 24.2655C56.1547 23.9779 56.087 23.3111 54.8685 22.9456C53.6501 22.5801 53.5486 22.2856 53.6501 22.1841C53.8676 22.3346 54.4686 22.6339 55.1492 22.6409C54.6243 22.315 53.9707 21.8381 53.6501 21.3718C53.2034 20.7219 52.4825 20.2549 52.1778 20.1026C52.4655 20.1195 53.2034 20.2752 53.8532 20.7626C53.904 20.6103 53.64 20.1635 52.1778 19.5949C52.5501 19.5441 53.4064 19.5746 53.8532 20.1026C54.0393 20.001 54.0766 19.666 52.7363 19.138C53.0071 19.1211 53.6095 19.138 53.8532 19.3411C53.6332 19.0534 52.9901 18.478 52.1778 18.478C52.1271 18.3595 52.2388 18.1226 53.0917 18.1226C52.804 17.9534 52.0458 17.7876 51.3148 18.478C51.3148 18.2919 51.5991 17.7572 52.7363 17.1073C53.8735 16.4574 53.684 15.5504 53.447 15.1781C53.2947 14.9581 52.7058 14.4978 51.5686 14.4166C50.4314 14.3353 49.1318 14.5181 48.6241 14.6196C48.2687 14.7889 47.4361 15.2898 46.9488 15.9396C47.1349 15.4487 47.9133 14.3756 49.5379 14.0104C48.9456 14.0442 47.2432 14.5484 45.1719 16.2949Z" fill="#606060"/>
<path d="M41.5184 15.941C41.9651 14.5194 42.8892 14.2318 43.2954 14.2148C42.3206 14.6616 41.8062 16.1609 41.6708 16.8548C42.1016 15.7988 42.6287 15.6702 42.8384 15.7379C41.9043 16.3471 41.7723 17.7855 41.8231 18.4286C41.8637 16.804 42.9908 16.1271 43.5493 15.9917C43.2954 16.2456 42.8384 16.6009 42.5339 17.3117C42.2234 18.0365 42.4831 19.9855 42.7369 21.0177C40.4524 18.8855 41.1197 17.2101 41.5184 15.941Z" fill="#F6142C"/>
<path d="M43.9555 18.1226C43.5494 17.554 43.9555 17.0058 44.2093 16.8027C44.2093 17.5337 44.2771 17.7842 44.3109 17.818C44.3617 17.7503 44.5851 17.5134 45.0724 17.1073C45.5598 16.7011 45.9186 16.5996 46.037 16.5996L45.2755 17.4627L46.3924 16.955C46.2739 17.0396 45.9253 17.3104 45.4786 17.7165C45.0318 18.1226 44.7171 18.698 44.6155 18.9349C44.5647 18.9011 44.3616 18.6912 43.9555 18.1226Z" fill="#F6142C"/>
<path d="M45.2755 18.9349C45.6816 17.9196 46.5616 17.6319 46.9508 17.615C45.8543 18.4273 45.5801 19.1718 45.5801 19.4426C46.0582 18.5085 46.9301 18.3426 47.3062 18.3765C46.4127 18.9045 46.1555 19.5441 46.1386 19.798C46.4635 19.3106 46.9508 19.2226 47.1539 19.2395C46.9001 19.4426 46.3416 20.0721 46.1386 20.9656C45.8847 22.0825 45.9355 21.8795 45.2755 22.9456C44.7475 23.7985 44.7171 24.3163 44.7678 24.4686L44.6155 24.2148C44.4632 23.5548 44.4632 23.5548 44.7678 22.9456C45.0115 22.4582 45.0724 21.6933 45.0724 21.3718C44.9709 20.9826 44.8694 19.9503 45.2755 18.9349Z" fill="#F6142C"/>
<path d="M40.5537 18.1244C40.4724 17.4746 40.5198 17.1091 40.5537 17.0075C38.9291 17.4644 34.9692 19.4952 31.1616 23.252C28.1155 26.2574 26.034 30.6641 25.374 32.4917H26.4401C26.9309 31.0702 28.7247 27.3642 31.9738 23.912C35.223 20.4597 39.0475 18.6152 40.5537 18.1244Z" fill="#606060"/>
<path d="M48.8288 10.9154L49.7426 10.56C49.8611 10.6277 50.1488 10.9154 50.3518 11.5246C50.5549 12.1338 50.1657 12.7261 49.9457 12.9461C50.1488 11.8901 49.7934 11.3554 49.5903 11.22C49.7934 11.4637 49.7426 11.7954 49.6918 11.9307C49.4075 11.4028 48.998 11.0338 48.8288 10.9154Z" fill="#606060"/>
<path d="M52.281 15.0784C50.4127 14.6316 49.0319 14.9937 48.5749 15.2307C50.1488 15.0784 51.2656 15.4845 50.6057 15.383C50.0777 15.3017 49.7765 15.4168 49.6918 15.4845C50.5549 15.586 50.6057 15.8906 50.8595 16.3983C51.0626 16.8045 50.9441 17.2106 50.8595 17.3629C51.6718 17.2817 52.0102 16.9229 52.0779 16.7537C51.4281 16.6725 51.3333 16.3137 51.3672 16.1445C51.3333 15.9583 51.3875 15.586 51.8749 15.586C52.3622 15.586 52.4164 16.1952 52.3825 16.4999C52.7887 16.4999 52.8902 16.3645 52.8902 16.2968C53.0933 15.6063 52.5687 15.1968 52.281 15.0784Z" fill="#606060"/>
<path d="M49.3365 18.7844C49.3365 18.2158 48.8288 17.7014 48.5749 17.5152C49.1165 17.7183 50.1995 18.3275 50.1995 19.1398C50.1995 19.9521 49.8949 20.4259 49.7426 20.5613C48.6866 20.9674 48.1857 21.6443 48.0673 21.932L46.8488 23.7089C47.0011 23.2858 47.4276 22.2366 47.915 21.4243C48.4023 20.6121 49.0657 20.3413 49.3365 20.3074C49.4718 20.2398 49.7426 20.0435 49.7426 19.7998C49.7426 19.4952 49.9457 18.2767 49.6918 18.7844C49.4888 19.1906 49.3703 19.6305 49.3365 19.7998V18.7844Z" fill="#606060"/>
<path d="M51.1133 21.272C49.9355 21.3126 49.2349 21.492 49.0319 21.5766C49.4211 21.5766 50.3823 21.6071 51.1133 21.7289C51.8444 21.8508 50.9103 21.9151 50.3518 21.932C50.4026 21.9659 50.6767 22.0539 51.3672 22.1351C52.3825 22.8458 52.5856 21.2213 51.1133 21.272Z" fill="#606060"/>
<path d="M52.1795 22.8458C51.7733 22.3585 50.521 22.5751 49.9457 22.7443C50.0811 22.7781 50.4838 22.8661 51.0118 22.9474C51.6718 23.0489 50.8595 23.7089 51.5703 23.912C52.1389 24.0744 52.3487 23.8443 52.3825 23.7089C52.4841 23.6243 52.5856 23.3332 52.1795 22.8458Z" fill="#606060"/>
<path d="M50.1995 10.3569C51.5195 9.83234 54.3523 8.86436 55.124 9.18928C56.0886 9.59542 57.104 8.83393 57.8147 7.4632C58.3833 6.36661 60.0146 9.51082 60.7592 11.22C60.8269 11.5754 60.9725 12.4181 61.0131 12.9461C61.0638 13.6061 60.6577 14.9261 60.0485 14.5199C59.4393 14.1138 60.2516 14.52 59.7439 12.4384C59.9303 12.6415 60.3437 13.1695 60.5054 13.6569C60.59 13.0138 60.5562 11.4231 59.7439 10.2047C58.9316 8.98623 58.5931 8.5124 58.5255 8.42779L59.1347 8.8847C58.9485 8.47855 58.4848 7.70688 58.1193 7.86934C58.1532 8.17395 58.1498 8.84408 57.8655 9.08777C57.5812 9.33146 57.3747 9.46007 57.307 9.49391L57.8655 8.42779C57.7132 8.69855 57.2563 9.29084 56.647 9.49391C57.0363 9.68004 58.1092 10.6311 59.287 12.9461C59.4393 13.2507 59.7439 14.7738 59.5916 14.8753C59.4393 14.9768 58.9418 14.7515 58.5255 14.6722C58.8301 14.9937 59.4697 15.8602 59.5916 16.7537C59.7439 17.8706 60.15 19.0383 58.9824 20.1552C57.8147 21.272 58.0178 21.4244 58.2716 19.6475C58.5255 17.8706 58.4747 17.8199 57.6624 17.1599C57.0603 16.6706 57.1526 16.5214 57.1156 16.5021C57.1117 16.5013 57.1078 16.5006 57.104 16.4999C57.1089 16.4999 57.1127 16.5006 57.1156 16.5021C57.7407 16.6244 58.5879 17.1153 58.8301 18.1244C58.8639 17.7521 58.6473 16.8654 57.5101 16.2968C56.3729 15.7282 55.3102 15.1461 54.9209 14.9261C55.1409 14.8245 55.7738 14.6519 56.5455 14.7738C56.4947 14.4861 56.5354 13.9107 57.104 13.9107H58.1193L56.647 12.6923C56.2409 12.6077 55.124 12.4384 53.9056 12.4384C54.4133 11.5246 54.8194 10.9154 54.464 11.22C54.1086 11.5246 53.4487 12.2861 52.281 12.6923C52.5348 12.4384 53.1847 11.7277 53.7533 10.9154C53.4317 11.0338 52.6465 11.3215 52.0779 11.5246C51.5093 11.7277 51.621 11.88 51.5195 11.9307C51.621 11.7107 51.9764 11.1997 52.5856 10.9154C52.333 10.8477 51.685 10.8138 51.1133 11.22C50.6719 11.5336 50.5684 11.7464 50.5759 11.8582C50.5835 11.8877 50.5939 11.912 50.6057 11.9307C50.59 11.9153 50.5781 11.8911 50.5759 11.8582C50.5284 11.6745 50.5886 11.2879 51.1133 10.7631C51.4225 10.454 51.5878 10.2973 51.6691 10.2269C51.2921 10.379 50.5477 10.589 50.1995 10.3569Z" fill="#606060"/>
<path d="M52.7895 16.3473C52.7083 15.6162 52.2818 15.2981 52.0787 15.2304C52.3326 14.875 53.0433 15.6365 52.9926 16.0934C52.9519 16.459 52.8403 16.415 52.7895 16.3473Z" fill="#D9D9D9"/>
<path d="M56.4448 34.5729C56.9728 33.4763 57.274 31.4761 57.3586 30.613C57.5592 32.3179 56.9673 33.9237 56.6103 34.8923L56.5971 34.9283C56.3128 35.7 55.9371 36.8744 55.7848 37.3652C55.7848 36.8913 55.9168 35.6695 56.4448 34.5729Z" fill="#D9D9D9"/>
<path d="M60.1508 21.3733C59.9478 20.3985 60.0831 20.0872 60.2523 20.1041C61.1052 23.1908 60.9123 25.5362 60.2523 26.6531C60.4554 25.5972 60.4893 23.9286 60.4047 23.3025C60.4047 25.6885 59.1709 25.2085 58.9831 28.0239C58.8815 29.5469 58.4924 31.9499 58.3232 32.4407C58.374 25.7901 59.0847 25.9932 59.5416 25.0793C59.9985 24.1655 60.4047 22.5917 60.1508 21.3733Z" fill="#D9D9D9"/>
<path d="M56.2925 18.1241C56.4448 17.7688 57.0032 17.4641 55.9879 15.9411C56.1909 16.1442 57.0337 16.7229 57.3586 17.2103C57.6835 17.6977 56.9693 18.5472 56.597 18.8856C56.4447 18.4795 56.1402 18.4795 56.2925 18.1241Z" fill="#D9D9D9"/>
<path d="M55.4294 21.6779C55.531 17.8703 55.7847 19.3425 54.5663 16.7534C55.5575 17.4642 56.0894 19.0887 56.0894 19.901C56.0894 20.7133 55.8996 22.524 56.2925 22.8455C56.8509 23.3025 56.6478 24.3686 56.3432 24.1655C55.8863 23.8609 56.4327 23.6234 55.3278 22.7948C54.5155 22.1856 54.1094 21.9317 53.8048 21.5256C54.6577 21.8911 55.2094 22.4394 55.4294 22.5917V21.6779Z" fill="#D9D9D9"/>
<path d="M54.7187 9.08745C56.0996 9.61544 56.8171 9.00284 57.0032 8.63054C56.7595 9.28037 56.4279 9.51051 56.2925 9.54436C57.4094 9.6459 57.5109 10.1536 58.577 11.7274C59.6431 13.3011 59.6431 13.9611 59.6431 14.6211V14.6211C59.6431 15.1796 59.2878 14.875 59.2878 14.1135C58.4247 12.9966 58.7293 12.9966 58.4247 12.032C58.181 11.2603 57.3755 10.9997 57.0032 10.9659C56.9017 11.0166 56.6478 11.0877 56.4448 10.9659C56.2417 10.844 56.5294 10.5766 56.6986 10.4582C57.0235 10.0114 56.5632 9.86589 56.2925 9.84897C55.1553 9.88958 54.7694 9.35821 54.7187 9.08745Z" fill="#D9D9D9"/>
<path d="M59.44 9.08745C59.0339 8.15332 58.3401 7.58134 58.1201 7.41211C59.237 7.41211 59.6431 8.88438 60.4047 10.4582C60.9887 11.6652 61.0815 13.2335 60.9123 13.7581L60.9062 13.7743C60.7546 14.1789 60.5515 14.7207 60.1508 14.5704C60.7194 13.9612 60.76 12.3874 60.7093 11.7274C60.0493 10.052 60.036 10.4582 59.44 9.08745Z" fill="#D9D9D9"/>
<path d="M59.2878 16.9565C59.1659 15.6162 58.1878 14.7396 57.714 14.4688C58.3232 14.0627 59.4401 15.3827 59.7447 17.5657C59.9884 19.3121 58.9324 20.3918 58.374 20.7133C58.9832 19.2918 58.577 18.8856 58.7801 18.581C58.9426 18.3374 59.0509 18.8518 59.0847 19.1395C59.2032 18.9703 59.4096 18.2967 59.2878 16.9565Z" fill="#D9D9D9"/>
<path d="M51.2665 21.3733C51.138 21.5017 51.3003 21.6102 51.4188 21.6779C52.0788 21.881 52.0279 22.2871 52.1295 22.1348C52.2818 21.9063 52.067 21.4116 51.6218 21.3225C51.3679 21.2717 51.3679 21.2717 51.2665 21.3733Z" fill="#D9D9D9"/>
<path d="M52.0279 23.8101C52.0618 23.5901 52.0787 22.9166 51.6725 22.5917C52.2818 22.6932 52.5356 23.2178 52.4848 23.5055C52.2818 24.064 52.0279 23.9624 52.0279 23.8101Z" fill="#D9D9D9"/>
<path d="M62.0292 30.9684L62.4353 30.2577C64.7503 32.9382 64.9568 35.0298 64.7707 35.7406C67.0044 36.6747 67.1906 42.1204 67.0044 44.7265C68.5478 47.2446 67.2075 50.514 66.3445 51.834C66.4291 52.934 66.4358 55.601 65.786 57.4692C65.1362 59.3375 64.6353 61.4291 64.4661 62.2414C64.8722 58.4846 65.0245 59.5507 65.4814 57.3677C65.8469 55.6213 65.9722 53.4247 65.9891 52.5448C65.6642 53.0727 64.8383 54.2201 64.4661 54.7278C65.1768 53.594 66.71 50.91 67.1567 49.2448C67.6035 47.5797 67.1737 45.8434 66.9029 45.1834L66.5983 45.4372C66.6829 45.2511 66.8014 44.097 66.5983 40.9697C66.3952 37.8424 65.2953 36.519 64.7707 36.2483C64.8113 37.1012 64.3476 38.3636 64.1107 38.8882C64.2461 38.2621 64.5067 36.6443 64.4661 35.1821C64.4254 33.72 63.5353 32.3053 63.0953 31.7807C63.6233 32.5524 63.8568 33.6591 63.9076 34.116C63.2172 32.4508 62.3676 31.3238 62.0292 30.9684Z" fill="#D9D9D9"/>
<path d="M60.5569 37.8221C61.5215 40.9697 61.5215 40.0051 61.623 43.2542C61.9107 42.0527 62.1003 39.2842 60.5569 37.8221Z" fill="#D9D9D9"/>
<path d="M64.7707 40.9697C64.4457 40.6041 64.686 40.4112 64.8214 40.3097C66.446 42.4216 66.1922 46.8587 65.6337 46.6557C65.9383 44.2696 65.1768 41.4266 64.7707 40.9697Z" fill="#D9D9D9"/>
<path d="M62.4861 45.1834C62.8584 46.7064 63.3796 50.1688 62.4861 51.834C63.1799 51.0217 64.1513 48.5544 62.4861 45.1834Z" fill="#D9D9D9"/>
<path d="M51.8248 46.6049C51.3781 46.1175 50.7249 45.7757 50.5049 45.6911C51.2664 45.6403 51.6218 46.0972 51.8756 46.3003C52.0787 46.4628 51.9264 46.5711 51.8248 46.6049Z" fill="#D9D9D9"/>
<path d="M52.2818 47.0618C52.4036 47.0212 52.4341 47.2141 52.4341 47.3157C52.4747 47.8843 52.1802 48.331 52.1295 48.331C52.1464 48.1449 52.2615 47.5797 52.1802 47.4172C52.0787 47.2141 52.1295 47.1126 52.2818 47.0618Z" fill="#D9D9D9"/>
<path d="M57.8662 45.6403C59.0339 47.671 59.5416 47.6203 58.9324 50.514C59.6262 49.6002 60.3843 47.3461 57.8662 45.6403Z" fill="#D9D9D9"/>
<path d="M37.6596 19.5966L37.8627 18.0228L36.695 18.8351L36.492 20.3074L37.6596 19.5966Z" fill="black"/>
<path d="M46.2399 13.7066C46.118 13.2192 45.6137 13.1651 45.3768 13.1989C45.2956 13.6457 45.7491 13.9266 45.986 14.0112C46.1214 14.1128 46.3617 14.194 46.2399 13.7066Z" fill="#F6142C"/>
<path d="M51.5705 12.7928C51.205 12.874 50.7413 12.3867 50.5551 12.1328C50.5551 12.539 50.7074 12.7928 51.3674 13.1989C51.8954 13.5238 52.3997 13.3343 52.5858 13.1989C52.8058 12.9113 53.1544 12.4273 52.7889 12.7928C52.4234 13.1583 51.892 13.0805 51.672 12.9959C51.7397 12.962 51.9056 12.874 52.0274 12.7928C52.1797 12.6913 52.1289 12.539 51.5705 12.7928Z" fill="#F6142C"/>
<path d="M54.0581 13.5035C53.855 13.5848 53.7027 13.5035 53.652 13.4528C53.5674 13.402 53.4692 13.3817 53.7535 13.7066C54.1089 14.1128 54.312 13.9605 54.2612 13.9605C54.2104 13.9605 54.312 13.402 54.0581 13.5035Z" fill="#F6142C"/>
<path d="M48.1183 16.3465C47.7527 16.1435 47.966 15.7204 48.1183 15.5343C48.037 16.0622 48.2198 16.1604 48.3213 16.1435C48.2875 16.025 48.2604 15.7373 48.4229 15.5343C48.626 15.2804 49.489 15.2297 49.6413 15.6866C49.7936 16.1435 49.6921 16.3465 49.3875 16.4481C49.0829 16.5496 49.5398 16.3465 49.489 16.0419C49.4484 15.7983 49.3367 15.7035 49.2859 15.6866C49.0659 15.602 48.626 15.5343 48.626 15.9404C48.626 16.4481 48.5752 16.6004 48.1183 16.3465Z" fill="#F6142C"/>
<path d="M48.9813 16.6512C48.7376 16.5293 48.7444 16.7019 48.7783 16.8035C48.6767 16.9937 50.3521 17.6665 50.5551 17.6157C50.7582 17.565 50.3521 17.4634 50.0982 17.2604C49.8951 17.0979 49.9121 16.7188 49.9459 16.5496C49.8782 16.5158 49.7225 16.5192 49.6413 16.8035C49.5398 17.1588 49.2859 16.8035 48.9813 16.6512Z" fill="#F6142C"/>
<path d="M51.5705 20.5095C51.0019 20.3877 50.8259 19.4772 50.809 19.0372C50.2505 21.4233 52.2305 20.5095 52.5858 21.4741C52.9412 22.4387 53.7535 23.4541 54.2612 23.911C54.7689 24.3679 55.7335 24.1648 54.7689 23.7079C53.8043 23.251 54.2612 23.251 53.652 22.6925C53.0428 22.1341 53.2458 21.4741 52.2305 20.7634C51.2151 20.0526 51.3674 19.7988 51.2151 19.9003C51.0933 19.9815 51.4013 20.3403 51.5705 20.5095Z" fill="#F6142C"/>
<path d="M49.1336 21.7787C49.1742 21.9412 49.5567 21.9818 49.7428 21.9818C49.8241 21.8599 50.0136 21.931 50.0982 21.9818C50.2201 22.3067 50.6228 22.2864 50.809 22.2356C51.012 22.3033 51.2456 22.459 50.5551 22.5402C49.8647 22.6215 49.6582 22.4387 49.6413 22.3372C49.6413 22.2695 49.5905 22.1544 49.3875 22.2356C49.1336 22.3372 48.8798 22.2864 48.7783 21.9818C48.6767 21.6772 49.0829 21.5756 49.1336 21.7787Z" fill="#F6142C"/>
<path d="M48.9813 22.6925C48.8595 22.5301 48.6598 22.7602 48.5752 22.8956C48.169 23.251 48.5752 24.114 49.1336 24.114C49.6921 24.114 49.8646 23.8274 50.3013 23.9617C50.9613 24.1648 51.1351 23.9217 50.9105 23.8094C50.3013 23.5048 49.2859 23.911 48.9813 23.4033C48.6767 22.8956 49.1336 22.8956 48.9813 22.6925Z" fill="#F6142C"/>
<path d="M60.4041 18.0219V17.0065C64.8209 19.0372 67.6639 21.2203 69.2885 22.6925C73.1468 26.1892 74.6191 30.1554 75.5837 32.4907H74.4668C74.0099 31.2723 72.5884 26.957 68.6285 23.4033C64.9518 20.1037 62.0794 18.8173 60.4041 18.0219Z" fill="#F6142C"/>
<path d="M45.9853 13.1998C45.8635 13.1592 45.7991 13.2167 45.7822 13.2505C45.8228 13.4131 45.9684 13.4197 46.0361 13.4028C46.0868 13.352 46.1376 13.2505 45.9853 13.1998Z" fill="#F6F6F6"/>
<path d="M46.5945 13.2505C46.7164 13.0882 46.9499 13.2505 47.0514 13.352L47.2545 13.4535C47.6099 13.5551 47.2037 13.7074 46.8991 13.9104C46.6554 14.0729 46.7299 13.8766 46.7976 13.7581C46.8822 13.6735 47.021 13.5144 46.8991 13.5551C46.7468 13.6058 46.4422 13.4535 46.5945 13.2505Z" fill="#F6F6F6"/>
<path d="M54.1591 13.2502C53.956 13.1284 53.8037 13.3687 53.7529 13.5041C53.8037 13.521 53.9357 13.5447 54.0575 13.5041C54.1794 13.4634 54.176 13.3179 54.1591 13.2502Z" fill="#F5F5F5"/>
<path d="M55.0221 13.1995C54.9409 13.1589 54.8191 13.2164 54.7683 13.2502C54.7175 13.4533 54.7683 13.504 54.9206 13.5041C55.0729 13.5041 55.0729 13.5041 55.0729 13.6056C55.0729 13.6868 54.9037 13.9102 54.8191 14.0117C55.0052 13.9271 55.3775 13.7173 55.3775 13.5548C55.3775 13.3517 55.3775 13.3517 55.276 13.301C55.1947 13.2604 55.1067 13.284 55.0729 13.301C55.0898 13.2841 55.1034 13.2401 55.0221 13.1995Z" fill="#F5F5F5"/>
<path d="M25.6289 53.8433H26.7966C27.5073 55.3325 29.7411 58.717 31.2134 60.4431C32.8357 62.3452 35.4271 64.0646 36.3917 64.8092C36.324 64.2507 36.1074 62.7886 35.7825 61.4077C35.3763 59.6816 35.0717 59.4278 34.7671 57.8032C34.5234 56.5036 34.4287 54.1141 34.4117 53.0818C34.1071 52.5064 33.4573 51.1831 33.2949 50.4926C33.0918 49.6296 32.9902 48.4619 33.1426 47.9035C33.2949 47.345 33.5995 46.0251 33.6502 45.822C33.701 45.6189 33.3456 41.7606 34.0564 39.8822C34.625 38.3794 35.1394 37.5976 35.3256 37.3945C34.9871 38.2745 34.3001 40.2477 34.2594 41.1006C34.2226 41.8739 34.2387 42.6778 34.2546 43.0734C34.2522 42.8358 34.2908 42.3937 34.4625 41.9129C34.6656 41.3443 34.784 41.1344 34.8179 41.1006C34.7164 41.6252 34.5234 42.7962 34.5641 43.2836C34.6047 43.771 34.581 44.8405 34.5641 45.3143C34.2594 45.6189 33.6502 46.6241 33.6502 48.2081C33.6502 49.792 34.4287 51.7449 34.8179 52.5234C34.6656 52.2188 34.3508 51.3557 34.3102 50.3403C34.2696 49.325 34.4625 48.7327 34.5641 48.5635C34.4625 49.1727 34.5133 50.8683 35.5286 52.7772C36.544 54.6861 37.1701 55.6033 37.3563 55.8233L39.2855 58.0063C39.2009 58.0232 38.7473 57.854 37.6101 57.0417C36.4729 56.2294 36.0532 55.891 35.9856 55.8233C36.0363 56.094 36.2597 56.9503 36.7471 58.2094C37.2344 59.4684 37.5255 59.9524 37.6101 60.037C36.8148 59.2416 35.3763 58.0266 35.9856 59.5293C36.7471 61.4077 37.1024 61.357 37.3563 63.5908C37.5594 65.3778 37.7794 66.5353 37.864 66.8907C36.2563 65.9938 32.574 63.6415 30.7057 61.4077C28.3704 58.6155 26.8981 56.3817 25.6289 53.8433Z" fill="#F6142C"/>
<path d="M33.5486 51.2539H32.7363C32.7702 51.3385 32.8379 51.66 32.8886 51.8124C32.9668 52.0467 33.0748 52.2862 33.1425 52.3708H34.0563C34.0055 52.3539 34.0563 52.3708 33.7517 51.8124C33.7245 51.7625 33.6501 51.5585 33.5486 51.2539Z" fill="black"/>
<path d="M48.8337 59.6846C48.4275 59.4815 47.886 59.4646 47.666 59.4815C48.8337 59.9892 48.2752 59.8369 48.8337 60.04C49.3921 60.243 49.4429 60.1923 49.6967 60.1923C49.8998 60.1923 50.289 59.9554 50.4582 59.8369C50.4582 59.7861 50.3872 59.7151 50.1029 59.8369C49.7475 59.9892 49.3414 59.9384 48.8337 59.6846Z" fill="#F6142C"/>
<path d="M41.6233 10.0358C43.7048 8.81732 48.0708 6.88838 54.0107 5.31445C55.0212 6.39843 49.9492 6.34982 45.1771 9.07123C45.1771 9.07123 42.2326 10.6025 41.0649 11.2542C39.8972 11.9059 39.7957 12.4727 38.8818 12.1173C37.968 11.7619 39.5419 11.2542 41.6233 10.0358Z" fill="#F6F6F6"/>
<path d="M42.2334 12.7247C44.3149 11.5063 44.2133 11.4555 48.4778 9.52627C48.4778 9.52627 50.2547 8.91696 50.1532 9.42468C50.0516 9.93241 50.1532 9.42468 46.1874 11.1576C46.1874 11.1576 44.2016 12.1538 42.0752 13.3406C39.9488 14.5274 40.0149 15.1175 39.6442 14.8062C39.2735 14.4949 40.1519 13.9431 42.2334 12.7247Z" fill="black"/>
<path d="M42.6341 12.1227C44.7156 10.9042 47.5586 9.2797 53.4984 7.70577C53.4984 7.70577 55.0722 7.29977 54.8691 8.06129C54.6661 8.82282 50.1985 9.22896 46.1878 11.1581C46.1878 11.1581 44.3602 12.066 42.0757 13.3411C39.7911 14.6162 40.3411 14.9082 39.7969 14.4513C39.2528 13.9944 40.5526 13.3411 42.6341 12.1227Z" fill="#F6F6F6"/>
<path d="M41.4015 10.5919C43.483 9.37346 43.3815 9.32264 47.646 7.39346C47.646 7.39346 49.4228 6.78415 49.3213 7.29187C49.2198 7.79959 49.3213 7.29187 45.3555 9.02482C45.3555 9.02482 42.6837 10.6245 40.5573 11.8113C38.4308 12.9981 38.2728 11.9636 38.6789 12.0143C39.085 12.0651 39.32 11.8103 41.4015 10.5919Z" fill="black"/>
<path d="M42.6894 12.4212C44.7709 11.2027 44.6694 11.2525 48.9339 9.32334C48.9339 9.32334 50.7107 8.81558 50.6092 9.3233C50.5077 9.83103 50.6092 9.3233 46.6434 11.0562C46.6434 11.0562 45.4178 10.7964 42.5313 13.2392C39.6448 15.682 39.0862 14.1609 39.6447 14.198C40.2032 14.2352 40.6079 13.6396 42.6894 12.4212Z" fill="black"/>
<g filter="url(#filter0_d_433_163)">
<path d="M39.6454 14.4345C39.4423 14.2315 39.29 14.5191 39.2393 14.6884C39.6454 15.9068 40.2062 14.3817 41.8792 13.47C44.3668 12.1143 45.3822 11.4543 47.5144 10.5914C48.0058 10.3925 48.0221 10.1347 47.7175 10.1348C47.3309 10.1349 45.2299 11.2361 44.5699 11.6423C43.9099 12.0484 41.6761 13.2161 40.6608 14.0791C39.6454 14.9422 39.8992 14.6884 39.6454 14.4345Z" fill="#F6142C" fill-opacity="0.96" shape-rendering="crispEdges"/>
</g>
<g filter="url(#filter1_d_433_163)">
<path d="M38.7802 12.2668C38.5771 12.0637 38.4248 12.3514 38.374 12.5206C38.7802 13.739 39.3709 12.2668 41.014 11.3023C42.657 10.3377 44.72 9.16992 45.2277 8.96685C45.7354 8.76378 45.7861 8.45917 45.4308 8.61148C45.0754 8.76378 44.3646 9.06839 43.7047 9.47453C43.0447 9.88067 40.8109 11.0483 39.7955 11.9114C38.7802 12.7744 39.034 12.5206 38.7802 12.2668Z" fill="#F6142C" fill-opacity="0.95" shape-rendering="crispEdges"/>
</g>
<path d="M39.9443 3.75535C40.3607 3.16057 40.8074 2.48616 41.0105 2.23232C41.2135 1.97848 45.2761 0.793074 48.3767 0.792969C51.6258 0.792859 55.7839 1.26773 56.1393 1.77541C56.4947 2.28309 56.7485 2.58769 56.85 3.0446C55.0055 2.77384 51.6514 2.49631 48.5241 2.53693C45.3968 2.57754 41.9243 3.17999 39.9443 3.75535Z" fill="black"/>
<path d="M37.0059 15.0086V14.5977L38.072 15.0593V15.4655L37.0059 15.0086Z" fill="black"/>
<path d="M35.9882 23.7416C36.5466 22.4386 37.5064 17.4869 37.1002 11.7603C37.6233 11.9305 37.6079 11.8289 37.6079 11.8289C38.0547 16.5808 37.0205 22.0663 36.3943 23.7924C36.699 24.0462 36.699 24.4015 36.4451 24.6047C36.1615 24.8316 36.0051 25.3154 35.9882 25.5693L35.7343 25.7216L35.5313 25.4677C35.5989 25.2985 35.6937 24.8687 35.5313 24.5031C35.3688 24.2594 35.5821 23.7416 35.9882 23.7416Z" fill="#F6142C"/>
<path d="M39.3897 13.588C39.146 13.385 39.3558 13.3342 39.4912 13.3342C39.7349 13.3342 39.6943 13.5034 39.6435 13.588C39.6604 13.6726 39.6333 13.7911 39.3897 13.588Z" fill="#F6142C"/>
<path d="M39.4912 13.1311C39.4573 13.0296 39.4607 12.7961 39.745 12.6742C41.1158 12.9788 40.8112 13.0296 39.8466 13.6896C39.7653 13.3647 39.5758 13.1819 39.4912 13.1311Z" fill="#F6142C"/>
<path d="M41.1665 12.4204C40.9228 12.2985 40.4219 12.2342 40.2019 12.2173C40.1512 12.2173 40.0801 12.2579 40.2019 12.4204C40.3542 12.6234 40.7604 12.296 41.0142 12.5727C41.2681 12.8494 41.5727 12.7757 41.4711 12.6742C41.3696 12.5727 41.4711 12.5727 41.1665 12.4204Z" fill="#F6142C"/>
<path d="M41.0142 11.8619C40.6487 11.6589 40.6588 11.8788 40.7096 12.0142C41.1158 12.1665 41.1665 12.4204 41.3696 12.4204C41.5727 12.4204 41.928 12.5727 42.0296 12.4204C42.1311 12.2681 42.0296 12.2173 41.8265 12.1158L41.8265 12.1157C41.6234 12.0142 41.4711 12.1158 41.0142 11.8619Z" fill="#F6142C"/>
<path d="M42.2327 12.0142C42.2665 11.845 42.2327 11.5167 41.8265 11.5573C41.5016 11.3949 41.5896 11.625 41.6742 11.7603C41.7554 12.1664 42.0803 12.0988 42.2327 12.0142Z" fill="#F6142C"/>
<path d="M43.6034 10.8464C43.6034 10.5418 43.5019 10.948 43.1465 10.7449C43.0246 10.9073 43.0957 11.0834 43.1465 11.1511C43.6542 11.2019 43.6034 11.151 43.6034 10.8464Z" fill="#F6142C"/>
<path d="M46.751 11.8619C46.223 12.1056 46.3279 12.2342 46.4464 12.268C46.6088 12.3898 47.0218 12.3865 47.2079 12.3695C47.2079 11.8416 46.9033 11.8111 46.751 11.8619Z" fill="#F6142C"/>
<path d="M47.8679 11.9126C47.4617 11.344 47.2587 11.4726 47.2079 11.608C47.0048 11.7183 47.9694 13.0803 48.7817 13.1818C49.594 13.2834 49.6448 13.0803 49.6955 13.0295C49.7463 12.9788 49.7463 12.8265 49.5432 12.8265C49.3808 12.8265 49.2048 12.7588 49.1371 12.7249C48.1725 11.7603 48.3756 11.608 48.071 11.7096C47.8273 11.7908 48.3079 12.2849 48.5786 12.5219C48.5109 12.5557 48.274 12.4812 47.8679 11.9126Z" fill="#F6142C"/>
<path fill-rule="evenodd" clip-rule="evenodd" d="M41.9804 0.134552C37.3049 6.59982 35.3757 10.4912 35.3757 10.4912C34.9077 11.6773 34.7832 12.9778 36.8747 13.1742C36.8735 13.0501 36.872 12.9255 36.8702 12.8004C35.969 12.675 35.0457 12.1762 35.8882 10.4912C36.2436 9.78045 39.7466 3.89137 41.1681 2.01296C42.2325 0.606358 42.2786 0.603105 42.409 0.593886C42.4179 0.593256 42.4272 0.592598 42.4373 0.591462C45.771 0.456081 52.865 0.317316 54.5708 0.845302C56.2766 1.37329 56.5459 2.843 56.5459 2.843C56.7997 3.95989 54.6167 5.58447 54.6167 5.58447C54.6167 5.58447 54.769 5.83831 54.5659 6.04138C54.5659 6.04138 57.3912 4.46757 57.0028 2.843C56.4916 0.705574 55.1766 0.467049 53.7507 0.208426C53.6187 0.184481 53.4857 0.160364 53.3524 0.134552C52.0933 -0.109134 45.2464 0.0330158 41.9804 0.134552ZM38.0317 12.8045C38.0412 12.9352 38.0491 13.067 38.0555 13.1996H38.4217C38.1679 13.0473 38.1171 12.7935 38.1171 12.7935C38.1171 12.7935 38.0864 12.7982 38.0317 12.8045Z" fill="#F6F6F6"/>
<path d="M45.0763 62.0205C44.6295 61.6956 42.7579 59.3128 41.8779 58.1621C42.301 58.5006 43.4213 59.3399 44.5179 59.9898C45.8886 60.802 46.244 60.4974 46.447 60.4974C46.5898 60.4974 47.2922 60.3928 47.7474 60.3216C47.8276 60.302 47.8851 60.2944 47.9193 60.2944C47.8681 60.3026 47.8101 60.3117 47.7474 60.3216C47.5496 60.3699 47.214 60.4912 46.7516 60.7513C45.9394 61.2082 45.7363 60.7513 45.9394 61.0051C46.1424 61.259 47.2086 61.259 47.9193 60.7513C48.4879 60.3451 48.9008 60.582 49.0362 60.7513C48.8839 60.7513 48.4879 60.802 48.1224 61.0051C47.6655 61.259 47.8685 61.8174 46.7516 61.6143C46.2947 61.6143 46.5486 61.8174 47.2086 62.0205C47.8685 62.2235 48.4778 62.0205 49.0362 61.8174C49.483 61.6549 50.17 61.7497 50.4577 61.8174V61.259C50.4577 61.1371 50.1531 60.8697 50.0008 60.7513C50.2716 60.8359 50.9755 61.0863 51.6254 61.4113C52.2752 61.7362 52.573 61.5466 52.6407 61.4113C52.4715 61.3605 52.0315 61.2082 51.6254 61.0051C51.2192 60.802 50.6777 60.4467 50.4577 60.2944H52.133C51.8115 60.1928 51.0974 59.9288 50.8131 59.6851C50.5288 59.4415 50.4577 58.7036 50.4577 58.3652C50.7454 58.6698 51.4832 59.3196 52.133 59.4821C52.7829 59.6445 53.4192 59.5498 53.6561 59.4821C53.5545 59.5159 53.2601 59.6039 52.8946 59.6851C52.529 59.7664 52.4715 59.9221 52.4884 59.9898C52.7761 60.0236 53.5444 60.1725 54.3161 60.4974C55.0877 60.8223 55.8222 60.6328 56.0929 60.4974C55.7545 60.6667 54.9659 61.0051 54.5191 61.0051C54.0724 61.0051 53.5545 60.8359 53.3515 60.7513C53.5207 60.8528 53.9505 61.0965 54.3161 61.259C54.6816 61.4214 55.1453 61.3266 55.3314 61.259C55.1791 61.4282 54.7628 61.8174 54.3161 62.0205C53.8693 62.2235 53.1822 62.1051 52.8946 62.0205L53.6561 62.3251C53.9099 62.3928 54.6004 62.4266 55.3314 62.0205C56.0625 61.6143 58.2421 59.4144 59.2405 58.3652C58.2083 59.8544 55.7274 62.8328 54.0622 62.8328C51.9807 62.8328 52.1838 62.0205 50.4577 62.3251C48.7316 62.6297 49.747 62.6297 48.1224 62.8328C46.4978 63.0358 45.6348 62.4266 45.0763 62.0205Z" fill="#F6142C"/>
<path d="M38.5744 11.2669C34.3607 12.8407 39.6744 4.90395 42.382 1.11328C41.6374 2.53478 39.8335 5.95654 38.5744 8.27155C37.3154 10.5866 38.3206 10.5223 38.9806 10.2007L38.5744 11.2669Z" fill="#EA132A"/>
<path d="M42.2295 2.18018L42.8387 1.06329L49.4385 1.06319V1.06332C56.6476 0.707946 55.8522 3.094 55.683 3.44938C55.5814 3.85547 54.6845 4.7355 54.2107 4.97242C54.1701 4.56627 53.9907 4.16013 53.9061 4.00783L54.6169 3.14477C55.9977 1.03283 46.934 1.62173 42.2295 2.18018Z" fill="#606060"/>
<defs>
<filter id="filter0_d_433_163" x="38.8331" y="10.1348" width="9.49295" height="5.81815" filterUnits="userSpaceOnUse" color-interpolation-filters="sRGB">
<feFlood flood-opacity="0" result="BackgroundImageFix"/>
<feColorMatrix in="SourceAlpha" type="matrix" values="0 0 0 0 0 0 0 0 0 0 0 0 0 0 0 0 0 0 127 0" result="hardAlpha"/>
<feOffset dy="0.406143"/>
<feGaussianBlur stdDeviation="0.203072"/>
<feComposite in2="hardAlpha" operator="out"/>
<feColorMatrix type="matrix" values="0 0 0 0 0 0 0 0 0 0 0 0 0 0 0 0 0 0 0.25 0"/>
<feBlend mode="normal" in2="BackgroundImageFix" result="effect1_dropShadow_433_163"/>
<feBlend mode="normal" in="SourceGraphic" in2="effect1_dropShadow_433_163" result="shape"/>
</filter>
<filter id="filter1_d_433_163" x="37.9679" y="8.57031" width="8.09842" height="5.2244" filterUnits="userSpaceOnUse" color-interpolation-filters="sRGB">
<feFlood flood-opacity="0" result="BackgroundImageFix"/>
<feColorMatrix in="SourceAlpha" type="matrix" values="0 0 0 0 0 0 0 0 0 0 0 0 0 0 0 0 0 0 127 0" result="hardAlpha"/>
<feOffset dy="0.406143"/>
<feGaussianBlur stdDeviation="0.203072"/>
<feComposite in2="hardAlpha" operator="out"/>
<feColorMatrix type="matrix" values="0 0 0 0 0 0 0 0 0 0 0 0 0 0 0 0 0 0 0.25 0"/>
<feBlend mode="normal" in2="BackgroundImageFix" result="effect1_dropShadow_433_163"/>
<feBlend mode="normal" in="SourceGraphic" in2="effect1_dropShadow_433_163" result="shape"/>
</filter>
<linearGradient id="paint0_linear_433_163" x1="50.5004" y1="1.31641" x2="68.8299" y2="78.9928" gradientUnits="userSpaceOnUse">
<stop offset="0.462098" stop-color="#F6142C"/>
<stop offset="0.788611" stop-color="#606060"/>
</linearGradient>
<linearGradient id="paint1_linear_433_163" x1="52.8888" y1="65.4855" x2="49.335" y2="67.2623" gradientUnits="userSpaceOnUse">
<stop stop-color="#606060"/>
<stop offset="1" stop-color="#F6142C"/>
</linearGradient>
</defs>
</svg>
